<svg width="463" height="289" viewBox="0 0 463 289" fill="none" xmlns="http://www.w3.org/2000/svg">
<path d="M109.738 242.314L94.2406 257.811L125.235 288.805L140.732 273.308L109.738 242.314ZM359.681 45.2801C359.681 33.1762 349.869 23.364 337.765 23.364L140.52 23.364C128.416 23.364 118.604 33.1762 118.604 45.2801C118.604 57.384 128.416 67.1962 140.52 67.1962H315.849V242.525C315.849 254.629 325.661 264.441 337.765 264.441C349.869 264.441 359.681 254.629 359.681 242.525L359.681 45.2801ZM140.732 273.308L353.262 60.7771L322.268 29.7831L109.738 242.314L140.732 273.308Z" fill="#A51417"/>
</svg>
