<svg width="20" height="20" viewBox="0 0 20 20" fill="none" xmlns="http://www.w3.org/2000/svg">
<path d="M9.39112 0.0123016C9.14818 0.0304956 8.26298 0.155562 8.07461 0.196495C7.95197 0.221507 7.66385 0.289727 7.42766 0.346577C7.28242 0.380688 6.68769 0.564878 6.59937 0.603537C6.57443 0.614906 6.46764 0.655839 6.36084 0.694495C6.07506 0.803647 5.61412 1.01513 5.32835 1.16976C5.26702 1.20387 5.13294 1.27663 5.03318 1.33121C4.93342 1.38351 4.83571 1.44037 4.81752 1.45402C4.79933 1.46992 4.71777 1.52223 4.63591 1.56997C4.29556 1.77465 3.70082 2.22488 3.35812 2.53641C3.03361 2.83205 2.58852 3.29137 2.32534 3.6052C2.24583 3.69841 2.16425 3.7962 2.14166 3.82123C1.98703 3.9963 1.50586 4.70353 1.33803 5.00142C1.23123 5.19017 0.879437 5.88371 0.806965 6.04972C0.738895 6.20209 0.536739 6.74101 0.520895 6.81149C0.514147 6.84332 0.475421 6.9593 0.436985 7.073C0.398256 7.18443 0.350722 7.33906 0.332531 7.41411C0.239522 7.78248 0.153259 8.1918 0.13272 8.35781C0.123625 8.42603 0.107781 8.52834 0.0966319 8.5852C0.0262146 8.94221 -0.0192638 9.84044 0.00802292 10.4271C0.0306151 10.9842 0.107781 11.6301 0.198736 12.0303C0.216928 12.1167 0.24187 12.2304 0.253019 12.2804C0.287054 12.435 0.328128 12.5874 0.418791 12.8944C0.46867 13.0559 0.520899 13.2355 0.53909 13.2923C0.568724 13.3901 0.700162 13.7244 0.766178 13.8722C0.782022 13.9086 0.836305 14.0314 0.886477 14.1451C0.936356 14.2565 1.03171 14.4566 1.09978 14.5885C1.22448 14.8318 1.28139 14.9319 1.53783 15.3526C1.6012 15.4572 1.79192 15.7369 1.95095 15.9552C1.99173 16.0097 2.05306 16.0939 2.08709 16.1439C2.12113 16.1917 2.19829 16.2826 2.25726 16.3486C2.31389 16.4122 2.36846 16.4918 2.37756 16.5214C2.38431 16.5532 2.42069 16.5987 2.45707 16.6237C2.49551 16.6487 2.60231 16.7533 2.69767 16.8579C2.87224 17.0489 3.36488 17.5128 3.54415 17.6584C3.59872 17.7016 3.69173 17.7789 3.7507 17.8289C3.84606 17.9108 3.96401 17.9995 4.34544 18.2723C4.60187 18.4588 5.1966 18.8067 5.5437 18.9773C5.99789 19.2001 6.82853 19.5276 7.13279 19.6026C7.20086 19.6185 7.3188 19.6504 7.39362 19.6709C7.75216 19.7709 8.40147 19.9005 8.72158 19.9346C8.82808 19.946 8.98242 19.9642 9.06633 19.9778C9.26849 20.0074 10.6531 20.0074 10.9004 19.9778C11.0072 19.9642 11.1794 19.9437 11.2862 19.9324C11.5336 19.9051 12.1532 19.7891 12.3871 19.7277C12.4868 19.7004 12.6004 19.6709 12.6368 19.6595C12.8774 19.5958 13.0701 19.5412 13.1543 19.5094C13.2066 19.4912 13.3313 19.4457 13.431 19.4116C13.5311 19.3752 13.674 19.3184 13.7488 19.2866C13.8239 19.2524 13.9509 19.1979 14.0325 19.166C14.3459 19.0409 14.9679 18.7067 15.315 18.4793C15.4036 18.4224 15.4966 18.3656 15.5215 18.3519C15.5488 18.3406 15.5987 18.3065 15.6351 18.2769C15.6715 18.2473 15.8029 18.1518 15.9279 18.0609C16.1298 17.9153 16.216 17.8471 16.493 17.6129C16.8222 17.3355 17.2397 16.9216 17.578 16.535C17.8843 16.1848 18.3881 15.489 18.5404 15.2025C18.5653 15.1593 18.6038 15.0911 18.631 15.0547C18.656 15.016 18.6947 14.9546 18.7129 14.9182C18.8083 14.7295 18.9374 14.4885 18.9535 14.4657C18.9647 14.4521 19.0057 14.3634 19.0465 14.2701C19.0873 14.1769 19.1439 14.0473 19.1736 13.9859C19.521 13.215 19.7841 12.2327 19.9361 11.1321C19.9951 10.7045 20.02 9.67672 19.9816 9.32197C19.859 8.21225 19.6615 7.29132 19.4097 6.64322C19.3596 6.52043 19.3211 6.40899 19.3211 6.39764C19.3211 6.38626 19.2895 6.30669 19.2507 6.22483C19.2123 6.14068 19.1621 6.02698 19.1395 5.97012C19.0533 5.75409 18.69 5.05599 18.563 4.85589C18.5175 4.78764 18.2247 4.34877 18.1182 4.1896C18.0272 4.05317 17.8368 3.80985 17.5757 3.49605C17.2876 3.14584 16.6928 2.57054 16.3114 2.2681C16.214 2.1885 16.1025 2.09983 16.064 2.06797C15.7486 1.80874 15.1539 1.42899 14.6181 1.15157C14.4958 1.08789 14.3776 1.0265 14.3573 1.01513C14.3027 0.983293 14.0349 0.862771 13.8397 0.780908C13.5766 0.669482 12.9953 0.469372 12.7048 0.389783C12.0919 0.223781 11.8742 0.180577 11.2067 0.0896193C11.0706 0.0714253 10.9004 0.0464126 10.8323 0.0350432C10.6689 0.00320598 9.6816 -0.0127111 9.39112 0.0123016ZM13.2767 5.92693C13.3107 5.93829 13.4401 6.0065 13.5604 6.07472C13.867 6.24982 13.9351 6.26575 14.5093 6.2794C15.1425 6.2953 15.6782 6.37945 15.8258 6.4886C15.9505 6.58184 15.9869 6.74556 15.9303 6.9593C15.8642 7.21401 15.7281 7.36634 15.44 7.51416C15.3581 7.55738 15.2493 7.62105 15.197 7.65514C15.1448 7.69152 15.0926 7.7211 15.0791 7.7211C15.0676 7.7211 14.9042 7.87343 14.7202 8.05763C14.5046 8.27366 14.3118 8.44193 14.1915 8.52379C13.9553 8.6807 13.9078 8.72163 13.7852 8.88764C13.6264 9.10367 13.6173 9.1446 13.6059 9.7381C13.5968 10.2156 13.6015 10.2884 13.6467 10.509C13.6945 10.7432 13.8259 11.0866 13.9169 11.2185C13.9395 11.2526 14.0055 11.3504 14.0621 11.4391C14.1848 11.6255 14.2165 11.6687 14.5979 12.1553C14.6613 12.2372 14.7634 12.3714 14.8247 12.4555C14.9905 12.6875 15.036 12.717 15.3173 12.7784C15.508 12.8216 15.5694 12.8444 15.601 12.8853C15.6486 12.949 15.6556 13.0035 15.6192 13.0695C15.5124 13.2719 14.6589 13.1832 14.0416 12.9057C13.96 12.8671 13.8805 12.8375 13.8647 12.8375C13.8488 12.8375 13.8259 12.8262 13.8124 12.8125C13.799 12.7989 13.708 12.7511 13.6106 12.7034C13.0431 12.4373 12.4824 11.9507 12.3099 11.5755C12.2985 11.5505 12.2442 11.4254 12.1873 11.3003C12.0761 11.0434 12.0036 10.9274 11.9534 10.9274C11.9012 10.9274 11.7583 11.0275 11.6677 11.1275C11.5224 11.2889 11.418 11.5664 11.3294 12.0303C11.3159 12.1053 11.2748 12.2759 11.2387 12.41C11.1568 12.7147 11.1524 12.8353 11.2249 12.9012C11.2839 12.9558 11.4406 13.0081 11.6222 13.0308C11.7199 13.0445 11.7516 13.0581 11.797 13.1195C11.8924 13.2446 11.8628 13.3401 11.7061 13.4083C11.6198 13.447 11.5427 13.4515 11.0433 13.4583C10.4829 13.4629 10.4805 13.4629 10.3919 13.4083C10.2514 13.3196 10.1264 13.0831 10.031 12.7238C9.95153 12.4237 9.94039 12.2577 9.95623 11.6596C9.97677 10.9592 9.97442 10.7409 9.94478 10.7114C9.89725 10.6636 9.6725 10.6318 9.29812 10.6159C8.92344 10.6022 8.90759 10.6045 8.885 10.6477C8.85771 10.6977 8.82367 10.8706 8.7782 11.2116C8.72597 11.5937 8.67845 11.887 8.64442 12.0416C8.59424 12.2554 8.59893 12.4214 8.65556 12.5305C8.71248 12.642 8.83042 12.7534 8.96216 12.8148C9.18662 12.9239 9.32071 13.0968 9.26614 13.2036C9.20482 13.3151 8.9871 13.3606 8.51707 13.3606C8.09046 13.3606 7.70904 13.3242 7.63656 13.2764C7.56175 13.2287 7.52976 13.1423 7.47548 12.8148C7.39831 12.36 7.25514 11.8211 7.15068 11.5868C7.02159 11.3026 6.94647 11.1594 6.88749 11.0866L6.81943 11.007L6.67654 11.1207C6.59702 11.1821 6.49023 11.2708 6.44035 11.3163C6.39047 11.364 6.23848 11.5004 6.1 11.6232C5.96386 11.7438 5.84561 11.8529 5.84355 11.8643C5.82976 11.8961 5.40756 12.2031 5.29636 12.2645C4.98769 12.4282 4.91962 12.5169 4.94251 12.7284C4.94926 12.8012 4.9695 12.8944 4.98534 12.933C5.02407 13.0263 5.05372 13.3333 5.03553 13.4379C5.02409 13.5015 5.00589 13.522 4.94017 13.5425C4.77674 13.597 4.59042 13.472 4.35452 13.1491C4.26151 13.0217 4.15707 12.883 4.12068 12.8398C4.03677 12.7352 3.91882 12.5533 3.85984 12.4282C3.82346 12.3577 3.80967 12.285 3.80967 12.1781C3.80967 12.0076 3.8575 11.8961 4.00948 11.7119C4.37947 11.2685 4.54055 10.9365 5.00149 9.66534C5.02408 9.60167 5.05576 9.51526 5.07395 9.47204C5.09214 9.42885 5.11944 9.35609 5.13763 9.31287C5.19191 9.17415 5.50086 8.5761 5.5437 8.52834C5.56424 8.50334 5.59593 8.45786 5.61207 8.42603C5.71183 8.23047 6.3177 7.53916 6.38812 7.53916C6.39721 7.53916 6.44504 7.50506 6.49022 7.46413C6.57443 7.39137 6.83527 7.23446 7.04183 7.13441C7.6571 6.83877 8.54436 6.70008 9.60678 6.72963C10.249 6.74782 10.8141 6.71598 11.3429 6.62958C11.6107 6.58639 11.8763 6.55681 12.1148 6.55C12.8137 6.52498 12.9886 6.44312 12.9886 6.14748C12.9886 6.03608 12.9977 6.00424 13.0452 5.95877C13.1042 5.89736 13.1746 5.88826 13.2767 5.92693Z" fill="white"/>
</svg>
