<?xml version="1.0" encoding="UTF-8" standalone="no"?>
<!-- Created with Inkscape (http://www.inkscape.org/) -->

<svg
   version="1.1"
   id="svg2"
   xml:space="preserve"
   width="133.32001"
   height="154.73334"
   viewBox="0 0 133.32001 154.73334"
   sodipodi:docname="desktop-digital-shield-outline-rev(1).eps"
   xmlns:inkscape="http://www.inkscape.org/namespaces/inkscape"
   xmlns:sodipodi="http://sodipodi.sourceforge.net/DTD/sodipodi-0.dtd"
   xmlns="http://www.w3.org/2000/svg"
   xmlns:svg="http://www.w3.org/2000/svg"><defs
     id="defs6" /><sodipodi:namedview
     id="namedview4"
     pagecolor="#ffffff"
     bordercolor="#666666"
     borderopacity="1.0"
     inkscape:pageshadow="2"
     inkscape:pageopacity="0.0"
     inkscape:pagecheckerboard="0" /><g
     id="g8"
     inkscape:groupmode="layer"
     inkscape:label="ink_ext_XXXXXX"
     transform="matrix(1.3333333,0,0,-1.3333333,0,154.73333)"><g
       id="g10"
       transform="scale(0.1)"><path
         d="m 951.59,326.719 c -0.164,-12.078 -0.313,-20.809 -0.332,-22.071 -1.367,-27.781 -8.797,-48.113 -24.063,-65.808 -13.254,-14.113 -31.211,-27.551 -53.086,-39.766 -7.148,-3.926 -15.144,-8.008 -23.769,-12.148 -6.289,-2.942 -12.93,-5.852 -19.727,-8.645 l -0.027,-0.008 -0.512,-0.207 c -2.488,-1.023 -7,-2.968 -12.09,-5.175 -5.722,-2.481 -16.394,-7.098 -19.375,-8.192 l -0.214,-0.078 -0.204,-0.078 L 499.953,51.6602 201.707,164.543 l -0.211,0.078 -0.211,0.078 c -2.98,1.094 -13.644,5.711 -19.379,8.192 -5.078,2.207 -9.597,4.152 -12.117,5.187 -6.969,2.852 -13.769,5.828 -20.223,8.848 -8.621,4.129 -16.621,8.222 -23.461,11.972 -22.187,12.391 -40.1519,25.829 -53.4019,39.942 -15.2656,17.695 -22.6953,38.027 -24.0625,65.808 -0.0117,0.715 -0.1562,9.602 -0.3281,22.082 v 1.387 76.778 C 109.133,388.293 260.867,354.68 492.641,354.68 l 6.922,0.008 c 197.742,0.578 384.859,37.343 452.027,52.089 v -78.66 z M 496.156,1054.21 c 1.782,0 3.039,0 3.766,0.02 0.664,-0.02 1.941,-0.02 3.82,-0.02 34.242,0 206.918,2.44 447.848,47.5 V 905.098 C 892.645,891.871 701.719,852.824 499.484,852.238 l -6.863,-0.015 c -240.207,0 -395.2069,37.597 -444.3085,51.5 v 197.987 c 240.9215,-45.06 413.5935,-47.5 447.8435,-47.5 z M 48.3125,721.656 c 15.8242,-3.758 39.6836,-9.258 57.6715,-12.836 22.325,-4.398 46.368,-9.062 70.934,-13.379 l 0.695,-0.117 0.231,-137.004 c -19.985,3.176 -41.16,6.672 -62.457,10.782 -23.5979,4.57 -45.6253,9.425 -67.0745,14.718 z m 902.7105,32.985 c -17.539,-4.239 -44.66,-10.508 -63.371,-14.235 -29.234,-5.765 -50.269,-9.73 -70.269,-13.246 l -0.649,-0.113 -26.582,-4.68 -0.047,-26.98 -0.246,-137.008 -0.066,-37.793 37.324,5.93 c 18.789,2.976 41.024,6.621 63.543,10.964 21.352,4.133 41.399,8.489 60.93,13.184 V 439.766 C 892.645,426.535 701.707,387.48 499.504,386.895 l -6.883,-0.008 c -240.215,0 -395.2108,37.597 -444.3085,51.492 v 112.285 c 19.5547,-4.695 39.6133,-9.051 60.9535,-13.184 22.832,-4.414 44.929,-8.015 63.535,-10.964 l 37.312,-5.918 -0.062,37.781 -0.231,137 -0.043,27.207 -26.836,4.5 -0.699,0.117 c -24.051,4.235 -47.894,8.852 -70.039,13.219 -18.7342,3.73 -45.8397,9.992 -63.3319,14.219 l -0.5586,0.136 V 870.234 C 109.137,853.629 260.879,820.016 492.652,820.016 l 6.911,0.015 c 197.757,0.571 384.867,37.336 452.027,52.078 V 754.777 Z M 951.59,583.82 c -21.438,-5.297 -43.418,-10.14 -67.039,-14.718 -20.969,-4.051 -42.278,-7.567 -62.485,-10.782 l 0.247,137.004 0.644,0.117 c 20.168,3.543 41.387,7.543 70.984,13.379 17.934,3.571 41.809,9.067 57.649,12.836 z m -447.848,518.7 c -2.195,0 -3.461,0.01 -3.754,0.02 v 0 h -0.039 c -0.023,0 -0.039,0 -0.039,0 v 0 c -0.293,-0.01 -1.558,-0.02 -3.754,-0.02 -29.492,0 -226.906,2.2 -496.15990625,57.95 v -832.353 -1.73 C 0.179688,313.223 0.335938,303.918 0.335938,303.77 l 0.011718,-0.692 0.035157,-0.695 C 2.26953,263.664 13.793,232.813 36.8047,206.504 c 15.1445,-16.309 36.2891,-33.34 65.7503,-49.785 8.117,-4.449 16.855,-8.918 26.304,-13.449 7.149,-3.348 14.68,-6.649 22.629,-9.899 v 0 l 0.032,-0.019 c 6.257,-2.563 26.347,-11.512 33.085,-13.993 L 499.945,0 v 0 h 0.004 0.004 v 0 l 315.34,119.359 c 6.734,2.481 26.824,11.43 33.086,13.993 l 0.039,0.019 v 0 c 7.937,3.25 15.477,6.551 22.613,9.899 9.453,4.531 18.196,9 26.313,13.449 29.461,16.445 50.601,33.476 65.75,49.785 23.008,26.309 34.531,57.16 36.426,95.879 l 0.031,0.695 0.008,0.692 c 0,0.148 0.156,9.453 0.339,22.617 v 1.73 832.353 C 730.66,1104.72 533.25,1102.52 503.742,1102.52"
         style="fill:#ffffff;fill-opacity:1;fill-rule:nonzero;stroke:none"
         id="path12" /><path
         d="m 194.867,339.641 v -39.297 l 8.598,-20.891 v -33.68 h 12.004 v 33.68 l 8.168,20.891 v 39.297 l -14.403,14.48 -14.367,-14.48"
         style="fill:#ffffff;fill-opacity:1;fill-rule:nonzero;stroke:none"
         id="path14" /><path
         d="m 226.52,277.59 v -31.633 h 12.406 v 20.273 l 14.437,13.379 17.52,-11.336 11.316,11.336 v 18.704 H 243.012 L 226.52,277.59"
         style="fill:#ffffff;fill-opacity:1;fill-rule:nonzero;stroke:none"
         id="path16" /><path
         d="m 136.594,298.313 v -18.704 l 11.289,-11.336 17.535,11.336 14.387,-13.379 v -20.273 h 12.398 v 31.633 l -16.531,20.723 h -39.078"
         style="fill:#ffffff;fill-opacity:1;fill-rule:nonzero;stroke:none"
         id="path18" /><path
         d="m 167.281,222.785 16.43,-13.469 8.23,10.332 v 14.512 l -24.66,0.039 v -11.414"
         style="fill:#ffffff;fill-opacity:1;fill-rule:nonzero;stroke:none"
         id="path20" /><path
         d="m 226.266,219.648 8.172,-10.332 16.566,13.469 v 11.414 l -24.738,-0.039 v -14.512"
         style="fill:#ffffff;fill-opacity:1;fill-rule:nonzero;stroke:none"
         id="path22" /><path
         d="m 215.141,234.16 h -11.676 v -16.543 l -9.703,-15.496 14.515,-18.644 15.36,18.644 -8.496,15.496 v 16.543"
         style="fill:#ffffff;fill-opacity:1;fill-rule:nonzero;stroke:none"
         id="path24" /><path
         d="m 492.746,182.219 h 16.555 v 46.758 l 11.527,28.953 v 54.504 L 500.813,332.48 480.801,312.434 V 257.93 l 11.945,-28.953 v -46.758"
         style="fill:#ffffff;fill-opacity:1;fill-rule:nonzero;stroke:none"
         id="path26" /><path
         d="M 523.16,226.426 V 182.57 h 17.149 v 28.016 l 20.019,18.644 24.25,-15.761 15.645,15.761 v 25.868 h -54.2 L 523.16,226.426"
         style="fill:#ffffff;fill-opacity:1;fill-rule:nonzero;stroke:none"
         id="path28" /><path
         d="M 401.578,255.098 V 229.23 l 15.676,-15.761 24.273,15.761 20.012,-18.644 V 182.57 h 17.133 v 43.856 l -22.805,28.672 h -54.289"
         style="fill:#ffffff;fill-opacity:1;fill-rule:nonzero;stroke:none"
         id="path30" /><path
         d="m 444.152,150.391 22.825,-18.629 11.464,14.328 v 20.101 l -34.289,0.071 v -15.871"
         style="fill:#ffffff;fill-opacity:1;fill-rule:nonzero;stroke:none"
         id="path32" /><path
         d="m 522.762,146.09 11.347,-14.328 22.918,18.629 v 15.871 l -34.265,-0.071 V 146.09"
         style="fill:#ffffff;fill-opacity:1;fill-rule:nonzero;stroke:none"
         id="path34" /><path
         d="m 508.891,143.281 v 22.91 h -16.145 v -22.91 L 479.32,121.77 500.289,95.9492 521.727,121.77 h -0.899 l -11.937,21.511"
         style="fill:#ffffff;fill-opacity:1;fill-rule:nonzero;stroke:none"
         id="path36" /><path
         d="m 776.004,339.152 v -39.297 l 8.586,-20.898 v -33.652 h 12.008 v 33.652 l 8.164,20.898 v 39.297 l -14.434,14.481 -14.324,-14.481"
         style="fill:#ffffff;fill-opacity:1;fill-rule:nonzero;stroke:none"
         id="path38" /><path
         d="m 807.652,277.102 v -31.641 h 12.403 v 20.301 l 14.418,13.359 17.539,-11.348 11.289,11.348 v 18.703 h -39.184 l -16.465,-20.722"
         style="fill:#ffffff;fill-opacity:1;fill-rule:nonzero;stroke:none"
         id="path40" /><path
         d="m 717.684,297.824 v -18.703 l 11.328,-11.348 17.48,11.348 14.414,-13.359 v -20.301 h 12.403 v 31.641 l -16.543,20.722 h -39.082"
         style="fill:#ffffff;fill-opacity:1;fill-rule:nonzero;stroke:none"
         id="path42" /><path
         d="m 748.395,222.277 16.41,-13.449 8.242,10.324 v 14.532 l -24.652,0.027 v -11.434"
         style="fill:#ffffff;fill-opacity:1;fill-rule:nonzero;stroke:none"
         id="path44" /><path
         d="m 807.359,219.152 8.204,-10.324 16.566,13.449 v 11.434 l -24.77,-0.027 v -14.532"
         style="fill:#ffffff;fill-opacity:1;fill-rule:nonzero;stroke:none"
         id="path46" /><path
         d="M 796.238,233.684 H 784.59 v -16.563 l -9.707,-15.488 14.5,-18.645 15.379,18.645 -8.524,15.488 v 16.563"
         style="fill:#ffffff;fill-opacity:1;fill-rule:nonzero;stroke:none"
         id="path48" /><path
         d="m 755.789,971.266 -14.707,-46.274 c -0.547,-1.668 0.078,-3.543 1.582,-4.601 0.684,-0.473 1.602,-0.762 2.434,-0.743 0.808,0 1.66,0.325 2.39,0.805 l 38.059,28.535 40.516,-26.859 c 1.511,-1.051 3.449,-0.887 4.863,0.187 1.347,1.114 1.875,2.989 1.242,4.649 l -16.633,44.301 36.778,30.964 c 1.32,1.13 1.765,2.95 1.21,4.57 -0.617,1.6 -2.097,2.67 -3.808,2.67 l -47.266,0.29 -16.609,41.71 c -0.688,1.65 -2.297,2.42 -3.996,2.63 -1.778,-0.08 -3.281,-1.31 -3.77,-2.97 l -12.246,-42.17 -45.535,-2.24 c -1.781,-0.09 -3.215,-1.24 -3.773,-2.94 -0.497,-1.64 0.089,-3.43 1.503,-4.475 l 37.766,-28.039"
         style="fill:#ffffff;fill-opacity:1;fill-rule:nonzero;stroke:none"
         id="path50" /><path
         d="m 470.18,939.289 -15.684,-45.941 c -0.594,-1.668 0,-3.543 1.445,-4.629 0.723,-0.52 1.575,-0.797 2.454,-0.797 0.828,0 1.675,0.25 2.398,0.766 l 38.684,27.699 39.933,-27.731 c 1.438,-1.047 3.41,-1.011 4.785,0.102 1.438,1.078 2.004,2.953 1.438,4.613 l -15.723,44.66 37.442,30.16 c 1.328,1.086 1.843,2.887 1.328,4.497 -0.567,1.64 -2.102,2.718 -3.782,2.8 l -47.234,1.278 -15.699,42.104 c -0.652,1.65 -2.231,2.41 -3.996,2.65 -1.774,-0.06 -3.278,-1.2 -3.824,-2.87 l -13.106,-41.884 -45.578,-1.278 c -1.766,-0.082 -3.281,-1.16 -3.836,-2.82 -0.523,-1.676 0.023,-3.453 1.391,-4.523 l 37.164,-28.856"
         style="fill:#ffffff;fill-opacity:1;fill-rule:nonzero;stroke:none"
         id="path52" /><path
         d="m 184.188,972.668 -16.645,-45.605 c -0.684,-1.661 -0.137,-3.551 1.344,-4.657 0.703,-0.519 1.519,-0.816 2.371,-0.816 0.875,-0.035 1.722,0.203 2.461,0.695 l 39.258,26.852 39.312,-28.559 c 1.449,-1.074 3.379,-1.043 4.856,0 1.41,1.059 2,2.906 1.453,4.594 l -14.746,44.957 38.128,29.367 c 1.344,1.034 1.934,2.824 1.375,4.454 -0.527,1.69 -2.031,2.8 -3.703,2.89 l -47.187,2.28 -14.844,42.41 c -0.558,1.67 -2.148,2.49 -3.887,2.79 -1.773,-0.04 -3.316,-1.15 -3.879,-2.85 l -14.003,-41.56 -45.633,-0.3 c -1.711,-0.04 -3.246,-1.11 -3.844,-2.74 -0.59,-1.63 -0.043,-3.46 1.266,-4.55 l 36.547,-29.652"
         style="fill:#ffffff;fill-opacity:1;fill-rule:nonzero;stroke:none"
         id="path54" /><path
         d="m 343.52,764.227 h 113.597 l 21.746,-18.836 21.09,-18.262 21.078,18.262 21.762,18.836 H 656.387 V 559.23 H 530.438 518.434 l -9.082,-7.863 -9.403,-8.144 -9.398,8.144 -9.078,7.863 H 469.465 343.52 Z m 136.972,-246.754 19.461,-16.856 19.457,16.856 11.028,9.55 H 688.594 V 796.434 H 530.777 l -7.168,-6.207 -23.656,-20.489 -23.66,20.489 -7.168,6.207 H 311.313 V 527.023 h 158.152 l 11.027,-9.55"
         style="fill:#ffffff;fill-opacity:1;fill-rule:nonzero;stroke:none"
         id="path56" /><path
         d="M 722.5,493.117 H 543.086 L 499.953,455.762 456.82,493.117 H 277.406 V 777.535 L 243.473,752.652 V 459.191 h 200.699 l 55.781,-48.3 55.777,48.3 H 756.426 V 752.656 L 722.5,777.539 V 493.117"
         style="fill:#ffffff;fill-opacity:1;fill-rule:nonzero;stroke:none"
         id="path58" /></g></g></svg>
