<svg width="6628" height="790" viewBox="0 0 6628 790" fill="none" xmlns="http://www.w3.org/2000/svg">
<g clip-path="url(#clip0_1103_165)">
<path d="M5192.18 508.1H465.982V496.243H5192.18V508.1Z" fill="white"/>
<path d="M3760.16 124.033C3765.47 124.033 3777.34 104.575 3777.34 98.7328C3777.34 92.8887 3765.47 72.9427 3760.16 72.9427C3755.26 72.9427 3742.99 93.379 3742.99 98.7328C3742.99 104.087 3755.26 124.033 3760.16 124.033Z" fill="white"/>
<path d="M3983.7 318.613V236.379C3983.7 198.473 3971.53 143.131 3915.39 143.131C3874.76 143.131 3853.8 181.679 3854.66 175.713V147.108C3854.66 142.122 3852.13 139.124 3849.62 139.124C3839.97 139.124 3832.81 155.491 3800.04 165.312C3797.95 165.801 3791.95 165.862 3791.73 169.655C3791.73 180.119 3824.62 156.042 3824.07 196.974V320.601C3824.07 343.797 3812.72 345.602 3804.45 347.835C3803.91 347.848 3803.52 347.749 3802.86 347.86C3794.45 347.37 3776.53 344.096 3776.53 326.108V147.108C3776.53 142.122 3774.01 139.154 3771.51 139.154C3761.87 139.154 3755.65 156.684 3728.87 165.647C3726.75 166.137 3722.9 166.565 3722.9 169.563C3722.9 180.026 3746.94 159.712 3745.93 196.974V314.636C3746.85 344.739 3730.42 347.614 3721.37 347.614C3707.79 347.431 3711.15 349.145 3711.15 353.366C3711.58 358.353 3719.75 358.72 3733.21 358.781C3737.83 358.781 3749.29 357.038 3762.7 357.038C3779.88 357.038 3792.85 358.996 3801.67 358.996C3806.72 358.996 3820.3 357.006 3842.48 357.006C3866.8 357.006 3875.18 358.996 3882.28 358.996C3888.59 358.996 3895.81 356.242 3891.52 352.021C3884.77 345.412 3854.66 353.029 3854.66 318.613V203.951C3854.22 195.966 3868.89 165.066 3904.1 165.066C3938.02 165.066 3953.11 202.45 3953.11 227.384V320.601C3952.69 357.191 3940.05 345.627 3935.1 353.029C3932.31 357.16 3937.16 358.996 3942.61 358.996C3948.1 358.996 3956.87 357.006 3972.78 357.006C3993.3 357.006 4002.31 358.903 4007.74 358.903C4011.94 358.903 4019.55 355.692 4014.87 351.898C4004.3 343.393 3983.43 356.364 3983.7 318.613" fill="white"/>
<path d="M791.139 30.8149C797.05 29.9581 799.998 27.7558 799.998 27.7558C799.998 23.8102 799.16 22.922 793.665 22.922C783.124 22.922 776.791 24.6967 766.243 24.6967C754.856 24.6967 745.99 23.381 736.286 23.381C730.798 23.381 731.219 25.1243 731.219 28.2148C731.219 31.7031 741.769 29.4992 747.679 42.6551C751.049 49.6598 749.79 64.5904 746.411 73.3401L665.402 295.658L630.801 197.026L617.291 161.05C617.291 161.05 615.186 161.937 624.885 132.108L643.877 75.1132C653.164 47.0597 662.415 32.3453 674.255 32.1307C689.161 31.8863 689.142 22.922 677.744 22.922C666.356 22.922 659.485 23.8101 649.36 23.8101C638.816 23.8101 633.328 22.922 621.936 22.922C617.719 22.922 613.075 24.2378 613.498 27.7558C613.921 31.2739 620.247 29.9582 624.885 32.5583C632.49 36.5369 637.544 52.7503 632.062 69.8518L609.698 141.317L584.379 74.6856C579.32 61.9589 572.631 33.9962 584.893 31.4572C596.72 29.0403 595.112 22.922 587.941 22.922C574.021 22.922 566.66 24.6967 553.157 24.6967C538.386 24.6967 527.415 22.922 513.495 22.922C510.541 22.922 505.052 23.381 506.747 29.0716C507.585 32.5583 514.762 31.2739 518.983 33.9054C535.853 44.8574 539.237 58.8998 545.14 74.6856L582.268 179.467C589.023 198.312 589.446 191.306 583.964 207.551L551.473 296.547L471.717 68.1084C465.39 50.9756 462.02 39.137 475.94 32.5583C481.85 29.4992 483.593 28.9181 484.383 27.7558C485.159 26.5936 485.888 22.6166 477.205 22.922C462.864 23.4421 453.992 24.6967 439.657 24.6967C424.463 24.6967 413.915 22.922 399.989 22.922C395.346 22.922 394.506 25.1243 394.506 28.6126C394.506 33.9054 405.894 30.3873 415.597 41.7669C421.086 47.9165 431.64 68.536 434.162 76.0013L530.487 352.776C532.243 356.906 532.677 364.951 538.386 364.951C542.797 364.921 543.654 355.652 545.19 352.134L595.777 213.241L645.149 345.22C647.248 350.481 650.093 364.921 655.269 364.951C659.535 364.951 661.07 358.13 663.272 351.521L758.649 78.6328C766.664 56.6975 775.947 33.4464 791.139 30.8149" fill="white"/>
<path d="M1854 347.189C1804.99 347.189 1785.71 286.4 1785.71 236.84C1785.71 193.887 1802.47 154.33 1843.52 154.33C1893.38 154.33 1911.39 207.532 1911.39 259.601C1911.39 322.285 1889.2 347.189 1854 347.189ZM1579.22 269.391C1545.55 269.391 1534.31 236.901 1534.31 206.185C1534.31 174.491 1543.88 148.273 1577.54 148.273C1611.66 148.273 1625.3 183.271 1625.3 213.987C1625.3 245.222 1611.04 269.391 1579.22 269.391V269.391ZM1546.59 343.303C1549.99 343.09 1550.92 344.527 1589.27 346.088C1628.93 347.005 1643.22 358.631 1645.65 368.848C1649.95 386.959 1637.05 425.812 1580.12 422.05C1544.31 419.724 1533.82 402.685 1531.05 398.738C1517.7 379.832 1528.71 344.374 1546.59 343.303V343.303ZM1849.8 139.309C1797.02 139.309 1756.39 192.388 1756.39 254.553C1756.39 286.13 1764.91 311.333 1779.37 329.395C1774.35 332.803 1764.5 340.641 1744.58 340.641C1727.28 340.641 1717.29 330.363 1716.41 308.182V173.053C1716.41 173.053 1768.21 172.9 1771.09 172.9C1774.67 172.9 1781.61 149.526 1781.86 148.334C1782.47 145.397 1783.47 143.042 1783.78 140.93C1784.47 136.465 1781.01 136.096 1777.88 140.808C1775.34 143.225 1772.69 149.68 1761.88 149.68H1716.51C1716.51 110.704 1716.95 93.0215 1710.88 93.0215C1705.09 93.0215 1705.97 94.6129 1700.7 111.959C1693.65 135.271 1671.8 147.973 1658.14 155.371C1652.02 156.76 1645.07 157.261 1637.31 155.554C1625.44 152.954 1611.4 138.545 1575.52 138.545C1537.03 138.545 1503.37 169.994 1503.37 212.181C1503.37 234.912 1513.42 256.786 1531.15 268.38C1527.87 270.338 1506.41 288.419 1509.01 309.682C1509.01 309.682 1508.57 331.708 1525.87 339.142C1520.5 341.284 1515.11 344.869 1510.31 349.391C1499 345.243 1482.45 348.382 1482.45 318.584V236.32C1482.45 198.414 1470.29 143.103 1414.16 143.103C1373.52 143.103 1352.57 181.649 1353.4 175.653V147.08C1353.4 142.092 1350.9 139.094 1348.38 139.094C1338.74 139.094 1336.65 155.095 1301.37 164.181C1299.28 164.701 1294.56 165.803 1294.34 169.626C1294.34 180.089 1322.64 158.185 1322.82 196.946V320.573C1322.82 347.157 1301.73 347.218 1297.99 347.587C1296.5 347.587 1294.84 347.654 1292.99 347.677C1284.08 346.821 1268.58 342.887 1268.58 326.11V147.11C1268.58 142.124 1266.07 139.156 1263.55 139.156C1253.92 139.156 1247.72 156.686 1220.91 165.649C1218.81 166.139 1214.95 166.567 1214.95 169.565C1214.95 180.028 1239.01 159.714 1238 196.976V314.638C1238.87 343.395 1223.98 347.262 1214.74 347.555C1203.58 346.203 1195.06 341.663 1195.06 324.611V241.367C1195.06 198.475 1178.72 143.133 1125.1 143.133C1101.22 143.133 1080.69 156.288 1064.77 174.215V30.9184C1064.77 25.9311 1062.25 23.0866 1059.75 22.9331C1053.3 22.5352 1042.48 42.2369 1011.9 49.2119C1009.8 49.7022 1001.93 50.3444 1001.93 53.3424C1001.93 63.8057 1033.66 48.3865 1034.19 80.7538V325.1C1034.19 349.545 1013.27 346.21 1009.47 354.01C1008.82 357.406 1010.73 358.998 1013.66 358.998C1020.36 358.998 1038.79 357.04 1051.78 357.04C1064.77 357.04 1085.72 358.998 1094.52 358.998C1099.55 358.998 1101.64 358.019 1101.64 352.022C1097.26 343.517 1064.77 356.52 1064.77 313.628V208.45C1064.77 183.026 1094.94 163.569 1113.79 163.569C1128.45 163.569 1164.49 175.041 1164.49 236.87V328.098C1164.49 346.056 1145.41 347.923 1143.96 353.551C1143.96 357.528 1146.47 358.998 1150.66 358.998C1155.27 358.998 1168.66 357.04 1185.01 357.04C1194.14 357.04 1202.39 357.511 1209.34 357.926C1213.12 358.648 1218.53 358.753 1225.26 358.783C1229.87 358.783 1241.35 357.04 1254.75 357.04C1267.98 357.04 1278.67 358.183 1286.92 358.716C1288.53 358.814 1290.17 358.882 1291.85 358.918C1292.44 358.936 1293.16 358.998 1293.72 358.998C1293.75 358.998 1293.78 358.972 1293.82 358.972C1298.93 359.052 1303.68 358.966 1305.65 358.966C1310.67 358.966 1319.05 356.978 1341.26 356.978C1365.56 356.978 1373.93 358.966 1381.06 358.966C1387.34 358.966 1394.56 356.183 1390.27 351.991C1383.53 345.383 1353.4 353.001 1353.4 318.584V203.921C1352.99 195.936 1367.66 165.038 1402.84 165.038C1436.78 165.038 1451.86 202.422 1451.86 227.356V320.573C1451.86 353.001 1438.81 345.597 1433.84 353.001C1431.06 357.13 1435.94 358.966 1441.39 358.966C1446.83 358.966 1455.63 356.978 1471.55 356.978C1486.64 356.978 1496.25 358.048 1502.48 358.618C1497.86 365.366 1494.64 373.125 1494.19 381.299C1491.94 421.835 1541.64 436.366 1583.37 435.817C1666.16 434.715 1689.63 377.2 1672.49 346.76C1654.79 315.31 1616.92 316.596 1580.59 316.718C1512.59 316.963 1525.47 274.835 1553.15 276.397C1559.54 276.764 1556.49 278.568 1578.54 278.568C1617.89 278.568 1655.61 251.83 1654.5 207.776C1654.4 204.044 1655.33 191.195 1645.86 173.146C1664.27 173.224 1656.95 173.083 1684.87 173.114L1684.76 296.497C1684.76 352.236 1711.29 361.69 1731.17 361.69C1759.43 361.69 1779.93 343.101 1783.59 334.407C1800.21 352.187 1823.36 361.69 1850.23 361.69C1901.76 361.69 1940.73 314.179 1940.73 252.013C1940.73 158.002 1881.65 139.309 1849.8 139.309" fill="white"/>
<path d="M2120.61 318.613V236.379C2120.61 198.473 2108.46 143.131 2052.34 143.131C2011.69 143.131 1990.75 181.679 1991.58 175.713V147.108C1991.58 142.122 1989.07 139.124 1986.55 139.124C1976.92 139.124 1969.76 155.491 1936.97 165.312C1934.88 165.801 1928.86 165.862 1928.66 169.655C1928.66 180.119 1961.57 156.042 1961 196.974V320.601C1961 353.029 1939.2 345.198 1934.25 353.672C1931.73 357.985 1938.37 358.996 1943.82 358.996C1948.85 358.996 1957.23 357.006 1979.42 357.006C2003.73 357.006 2012.11 358.996 2019.22 358.996C2025.52 358.996 2032.74 356.242 2028.45 352.021C2021.71 345.412 1991.58 353.029 1991.58 318.613V203.951C1991.15 195.966 2005.83 165.066 2041.03 165.066C2074.95 165.066 2090.02 202.45 2090.02 227.384V320.601C2089.62 357.191 2076.98 345.627 2072.03 353.029C2069.24 357.16 2074.11 358.996 2079.54 358.996C2085.01 358.996 2093.81 357.006 2109.71 357.006C2130.25 357.006 2139.24 358.903 2144.67 358.903C2148.87 358.903 2156.48 355.692 2151.8 351.898C2141.23 343.393 2120.35 356.364 2120.61 318.613" fill="white"/>
<path d="M1252.22 124.033C1257.54 124.033 1269.4 104.575 1269.4 98.7328C1269.4 92.8887 1257.54 72.9427 1252.22 72.9427C1247.32 72.9427 1235.05 93.379 1235.05 98.7328C1235.05 104.087 1247.32 124.033 1252.22 124.033Z" fill="white"/>
<path d="M835.901 306.398C835.901 333.043 808.858 347.117 793.782 347.117C771.583 347.117 756.017 332.677 756.017 304.042C756.017 259.805 809.09 251.759 835.901 244.723V306.398ZM972.291 236.462C964.061 232.516 951.745 225.48 945.663 222.145C919.384 207.766 909.013 198.343 908.272 184.883C907.055 161.571 926.843 149.486 943.993 151.169C985.036 150.465 990.537 196.446 994.735 196.446C1001.01 196.446 999.336 190.42 999.336 176.866C999.336 173.348 999.758 156.278 997.224 152.27C992.201 144.714 963.168 140.309 956.065 140.309C954.271 140.309 947.553 140.094 946.397 140.063C944.41 140.002 941.814 140.309 941.814 140.309C912.592 139.85 885.254 158.358 886.124 197.486C886.924 233.158 928.849 253.502 951.482 267.054C968.223 276.6 987.943 285.686 987.691 308.539C987.367 334.604 967.17 351.89 945.431 350.452C894.512 349.595 901.487 285.717 892.303 285.717C886.031 285.717 887.305 301.777 887.28 310.314C887.248 318.58 887.103 326.173 887.096 332.549C886.063 338.416 883.73 343.795 878.292 344.119C858.235 345.311 863.068 313.434 863.068 296.362V192.317C862.096 160.47 838.123 139.696 801.692 139.696C751.673 139.696 715.91 201.311 732.858 220.461C736.909 225.051 753.215 207.429 754.194 206.481C755.185 205.564 755.4 204.4 755.4 204.4C755.295 183.414 771.081 156.676 793.715 154.442C819.564 151.872 832.482 171.207 832.482 197.364V231.23C734.456 250.81 720.26 283.423 720.26 310.038C720.26 345.709 745.347 361.68 772.573 361.68C796.039 361.68 819.076 350.635 836.672 332.555C842.118 349.136 853.028 359.141 869.359 358.65C875.024 358.497 875.875 360.057 893.08 352.623C899.04 351.075 898.716 351.155 905.543 352.421C914.575 355.585 926.898 361.648 948.576 361.648C981.421 362.139 1010.86 331.729 1010.86 294.099C1010.86 270.909 1004.11 256.195 972.291 236.462" fill="white"/>
<path d="M4394.32 309.518C4389.37 309.518 4376.95 330.382 4376.95 335.858C4376.95 341.304 4389.37 361.68 4394.32 361.68C4399.71 361.68 4411.72 341.825 4411.72 335.858C4411.72 329.894 4399.71 309.518 4394.32 309.518Z" fill="white"/>
<path d="M4939.6 327.567V152.362C4939.6 142.45 4934.05 139.85 4932.5 139.85C4926.16 139.85 4922.62 141.41 4918.26 142.45C4913.93 144.01 4908.85 146.274 4897.4 146.274C4895.41 146.274 4884.49 144.438 4885.17 150.282C4885.84 156.156 4910.59 152.79 4910.78 170.136V296.882C4908.85 319.003 4890.24 343.414 4867.77 343.414C4862.63 343.414 4829.06 339.774 4829.45 284.431V152.362C4829.45 142.45 4823.92 139.85 4822.36 139.85C4816.03 139.85 4812.47 141.41 4808.13 142.45C4803.8 144.01 4798.25 146.029 4786.82 145.6C4780.69 145.356 4773.92 144.438 4775.01 150.282C4775.98 155.482 4800.65 150.282 4800.65 170.136V291.743C4800.65 336.134 4826.68 361.68 4858.27 361.68C4879.2 361.68 4898.54 357.12 4910.78 332.585H4911.58V353.878C4911.58 355.958 4911.97 361.68 4915.12 361.68C4921.02 361.68 4924.2 356.753 4928.56 355.193C4933.29 354.122 4934.48 349.81 4949.23 348.494C4955.5 347.943 4962.55 344.608 4962.55 340.416C4960.27 331.544 4939.6 341.121 4939.6 327.567" fill="white"/>
<path d="M4696.44 347.178C4647.43 347.178 4628.16 286.389 4628.16 236.83C4628.16 193.877 4644.92 154.32 4685.98 154.32C4735.82 154.32 4753.83 207.522 4753.83 259.591C4753.83 322.275 4731.62 347.178 4696.44 347.178ZM4692.26 139.299C4639.49 139.299 4598.82 192.378 4598.82 254.542C4598.82 282.553 4605.54 305.523 4617.15 322.991C4604.26 332.199 4581.06 340.814 4536.9 340.814C4502.4 340.814 4505.67 328.915 4505.67 299.667V65.8442C4505.67 22.7081 4537.91 35.2829 4538.58 27.4197C4539.03 21.9751 4534.09 23.1984 4528.73 23.1984C4522.56 23.1984 4511.48 25.6153 4488.07 25.6153C4467.91 25.6153 4450.21 23.7184 4441.58 23.7184C4436.22 23.7184 4431.38 25.2174 4433.2 29.3166C4437.19 38.5252 4467.73 30.1734 4467.73 55.9322V300.156C4467.73 323.468 4471.24 338.368 4460.54 344.332C4447.42 352.256 4432.05 352.654 4433.34 357.794C4434.17 361.006 4440.59 361.16 4444.3 361.16C4460.72 361.16 4483.49 359.141 4499.91 358.65C4531.17 357.671 4562.39 360.64 4593.65 360.64C4611.76 360.64 4616.29 356.968 4629.45 339.132C4629.66 338.839 4629.82 338.612 4630.04 338.33C4646.3 353.541 4667.9 361.68 4692.68 361.68C4744.2 361.68 4783.17 314.169 4783.17 252.003C4783.17 157.992 4724.1 139.299 4692.26 139.299Z" fill="white"/>
<path d="M4178.21 177.478C4166.18 171.451 4148.26 160.652 4139.44 155.574C4101.11 133.546 4086 119.138 4084.93 98.5477C4083.13 62.8456 4117.97 41.706 4142.94 44.3062C4174.61 44.3062 4200.77 63.5191 4211.56 104.667C4212.65 108.981 4216.63 119.045 4220.61 119.045C4224.2 119.045 4224.9 115.681 4224.53 111.856L4219.14 46.7841C4218.78 41.5227 4217.01 40.0848 4214.83 40.0848C4211.25 40.0848 4209.05 45.3478 4205.81 45.3478C4200.77 45.3478 4187.97 27.2673 4144.41 27.6636C4141.49 27.5727 4137.52 28.0316 4137.52 28.0316C4094.97 27.297 4055.05 55.5652 4056.33 115.466C4057.46 170.013 4118.61 201.188 4151.57 221.93C4175.97 236.522 4201.52 259.866 4200.74 285.778C4199.47 325.67 4174.45 351.797 4142.78 349.563C4068.57 348.248 4078.75 250.474 4065.35 250.474C4056.21 250.474 4058.07 275.07 4058.01 288.103C4057.95 319.093 4056.72 344.485 4060.28 348.982C4061.41 350.42 4064.99 349.747 4072.2 349.747C4086.83 349.747 4104.67 366.726 4147.37 366.726C4195.19 367.492 4234.41 323.253 4234.41 265.647C4234.41 230.189 4224.53 207.643 4178.21 177.478Z" fill="white"/>
<path d="M5014.33 124.033C5019.66 124.033 5031.5 104.575 5031.5 98.7328C5031.5 92.8887 5019.66 72.9427 5014.33 72.9427C5009.42 72.9427 4997.14 93.379 4997.14 98.7328C4997.14 104.087 5009.42 124.033 5014.33 124.033Z" fill="white"/>
<path d="M5057.02 347.86C5048.64 347.37 5030.7 344.096 5030.7 326.108V147.108C5030.7 142.122 5028.17 139.154 5025.66 139.154C5016.03 139.154 5009.84 156.684 4983.01 165.647C4980.92 166.137 4977.07 166.565 4977.07 169.563C4977.07 180.026 5001.11 159.712 5000.11 196.974V314.636C5001.04 344.739 4984.6 347.614 4975.52 347.614C4961.92 347.431 4965.32 349.145 4965.32 353.366C4965.73 358.353 4973.92 358.72 4987.38 358.781C4991.97 358.781 5003.45 357.038 5016.87 357.038C5034.04 357.038 5047.04 358.996 5055.83 358.996C5061.26 358.996 5068.06 345.993 5057.02 347.86" fill="white"/>
<path d="M5153.63 236.41C5145.39 232.465 5133.06 225.397 5126.98 222.094C5100.7 207.683 5090.33 198.262 5089.6 184.8C5088.37 161.488 5108.16 149.435 5125.32 151.117C5166.35 150.383 5171.86 196.365 5176.04 196.365C5182.32 196.365 5180.66 190.338 5180.66 176.785C5180.66 173.267 5181.07 156.196 5178.57 152.189C5173.51 144.662 5144.48 140.226 5137.39 140.226C5135.6 140.226 5128.88 140.043 5127.71 140.012C5125.72 139.951 5123.12 140.226 5123.12 140.226C5093.9 139.768 5066.59 158.276 5067.45 197.435C5068.25 233.076 5110.18 253.421 5132.8 267.003C5149.56 276.519 5169.26 285.604 5169.01 308.457C5168.68 334.523 5148.49 351.807 5126.77 350.37C5075.83 349.513 5082.8 285.635 5073.62 285.635C5067.35 285.635 5068.64 301.696 5068.61 310.232C5068.51 330.423 5067.68 347.035 5070.14 350.003C5070.89 350.921 5073.35 350.462 5078.3 350.462C5088.34 350.462 5100.61 361.567 5129.88 361.567C5162.75 362.056 5192.18 331.647 5192.18 294.018C5192.18 270.858 5185.44 256.112 5153.63 236.41" fill="white"/>
<path d="M4365.43 328.18C4361.22 330.199 4351.6 340.631 4328.69 340.631C4311.41 340.631 4301.4 330.352 4300.56 308.171V165.516C4300.56 165.516 4352.31 165.394 4355.19 165.394C4358.76 165.394 4365.72 142.021 4365.95 140.829C4366.56 137.892 4367.55 135.505 4367.88 133.425C4368.55 128.958 4365.11 128.561 4361.97 133.271C4359.44 135.688 4356.77 142.143 4346.01 142.143H4300.62C4300.62 103.199 4301.07 93.0111 4295.01 93.0111C4289.2 93.0111 4290.09 94.5712 4284.83 111.948C4276.04 140.951 4244.14 153.678 4233.95 159.979C4231.46 161.203 4231.59 161.662 4231.49 163.131C4231.29 166.832 4243.62 165.303 4268.98 165.975L4268.88 296.486C4268.88 352.225 4295.4 361.68 4315.3 361.68C4345.56 361.68 4367.19 340.142 4368.44 332.555C4368.44 328.21 4367.88 327.813 4365.43 328.18" fill="white"/>
<path d="M2967.88 151.781C2990.95 151.781 3014.45 176.959 3014.45 205.134C3014.45 212.691 3011.93 215.2 3006.05 215.2H2923.4C2923.4 187.513 2941.85 151.781 2967.88 151.781V151.781ZM3050.11 310.344C3040.9 310.344 3027.04 336.532 2990.95 336.532C2965.34 336.532 2923.4 311.843 2923.4 228.783H3035.03C3044.66 228.783 3049.28 229.303 3049.28 220.248C3049.28 200.117 3026.62 140.217 2975.01 140.217C2922.53 140.217 2892.74 194.06 2892.74 258.489C2892.74 291.713 2914.59 361.68 2977.51 361.68C3015.29 361.68 3051.79 325.458 3051.79 313.862C3051.79 312.363 3051.79 310.344 3050.11 310.344" fill="white"/>
<path d="M2455.21 33.0867C2456.85 30.3957 2451.18 29.2021 2449.32 29.2021C2442.66 29.2021 2427.25 30.8844 2420.22 30.8844C2405.76 30.8844 2393.75 29.5076 2379.29 29.5076C2378.18 29.5076 2371.89 30.3033 2371.86 32.4445C2371.77 42.6932 2406.31 30.7325 2406.31 74.4183V245.495C2406.31 296.065 2390.39 349.174 2320.75 349.174C2270.77 349.174 2243.69 317.908 2243.69 249.35V63.283C2243.69 32.4445 2267.84 39.0843 2268.36 32.2002C2268.84 25.5917 2246.96 29.5076 2245.11 29.5076C2233.63 29.5076 2225.55 30.7011 2213.69 30.7011C2203.7 30.7011 2191.58 29.2021 2181.94 29.2021C2180.09 29.2021 2173.26 28.8356 2172.14 31.5877C2168.36 40.7353 2202.99 35.8717 2202.99 61.1418V237.785C2202.99 303.774 2221.52 368.355 2318.9 366.734C2434.41 364.808 2432.25 260.944 2432.25 239.958V74.8475C2432.25 35.4425 2451.54 39.1752 2455.21 33.0867" fill="white"/>
<path d="M2911.32 150.372C2914.12 147.099 2914.98 141.776 2902.01 142.908C2894.89 142.908 2889.5 144.162 2882.34 144.162C2873.13 144.162 2871.39 143.856 2862.57 143.519C2851.59 143.153 2848.6 144.346 2849.24 147.65C2851.14 157.44 2874.26 147.864 2871.14 176.743C2868.48 201.005 2860.65 221.869 2852.66 242.579L2824.56 317.257L2783.44 192.805C2778.38 177.263 2776.3 168.943 2776.3 167.413C2776.3 151.841 2795.12 155.421 2799.28 148.873C2801.94 144.713 2796.44 142.511 2790.57 142.511C2785.54 142.511 2779.76 144.254 2764.25 144.621C2751.38 144.957 2742.26 144.866 2736.62 143.856C2722.15 141.225 2723.32 149.21 2728.37 151.749C2733.32 154.258 2735.74 151.932 2743.14 173.623L2806.5 352.531C2807.78 356.14 2809.44 364.951 2814.91 364.951C2821.22 364.951 2821.22 358.742 2829.16 337.479C2829.16 337.479 2889.75 168.055 2893.9 161.907C2902.11 149.852 2908.31 153.829 2911.32 150.372" fill="white"/>
<path d="M3145.19 142.244C3128.03 142.244 3116.04 162.956 3107.44 177.243H3106.64V146.191C3106.64 141.265 3104.19 138.297 3101.75 138.297C3095.17 138.297 3090.13 151.514 3055.31 159.743C3053.26 160.232 3047.45 161.365 3047.45 164.333C3047.45 174.704 3076.88 161.211 3076.85 195.475V325.986C3076.85 346.176 3056.01 344.219 3056.01 354.589C3056.01 357.526 3057.24 358.996 3060.51 358.996C3063.36 358.996 3070.72 357.038 3098.04 357.038C3120.92 357.038 3130.71 358.996 3136.45 358.996C3140.91 358.996 3142.96 358.017 3142.96 353.581C3142.96 337.795 3106.64 361.474 3106.64 315.645V204.347C3106.64 197.953 3116.43 175.285 3133.17 175.285C3147.85 175.285 3149.68 186.603 3157.44 186.603C3162.32 186.603 3172.11 171.828 3172.11 164.424C3172.11 155.093 3153.75 142.244 3145.19 142.244Z" fill="white"/>
<path d="M3671.76 143.859C3667.39 143.859 3656.19 144.533 3646.12 144.533C3633.86 144.533 3627.83 143.063 3622.6 143.063C3614.7 143.063 3607.12 143.124 3608.47 148.265C3610 154.078 3636.49 151.996 3636.49 180.846C3636.49 184.548 3636.49 189.382 3631.23 208.564L3597.52 315.853L3550.68 184.028C3550.68 184.028 3548.48 179.776 3548.48 171.209C3548.48 149.886 3573.41 152.211 3574.38 148.417C3575.18 145.297 3570.99 142.055 3564.42 142.055C3557.4 142.055 3547.1 142.116 3531.59 142.116C3529.13 142.116 3526.89 142.135 3524.67 142.158C3524.68 142.128 3524.7 142.078 3524.7 142.055H3505.79C3505.53 142.055 3505.37 142.177 3505.06 142.177H3459.69C3459.69 103.201 3460.12 93.0134 3454.07 93.0134C3448.24 93.0134 3449.14 94.6048 3443.87 111.951C3435.13 140.953 3403.2 153.68 3393 159.982C3390.52 161.205 3390.65 161.664 3390.56 163.163C3390.34 166.834 3402.7 165.335 3428.05 165.978L3427.94 296.488C3427.94 352.227 3454.46 361.682 3474.36 361.682C3504.63 361.682 3526.27 340.174 3527.52 332.557C3527.52 328.243 3526.97 327.816 3524.53 328.182C3520.3 330.233 3510.7 340.633 3487.75 340.633C3470.46 340.633 3460.46 330.355 3459.6 308.174V165.55C3459.6 165.55 3500.01 165.434 3511.4 165.403C3512.03 166.376 3512.62 167.373 3513.01 168.548L3561.41 305.237C3565.36 316.435 3567.68 320.075 3572.43 339.869C3575.54 352.779 3574.38 364.282 3574.38 364.282C3569.7 384.841 3557.08 396.618 3537.82 434.524C3535.96 438.194 3565.61 434.156 3567.07 433.697C3569.47 432.962 3569.18 432.29 3572.07 426.905L3593.42 363.266L3653.14 179.776C3661.88 147.745 3675.74 153.588 3677.86 149.213C3679.11 146.52 3677.03 143.859 3671.76 143.859" fill="white"/>
<path d="M3594.49 360.091L3593.43 363.266L3593.21 363.946L3594.49 360.091Z" fill="white"/>
<path d="M3355.89 124.033C3361.21 124.033 3373.05 104.575 3373.05 98.7328C3373.05 92.8887 3361.21 72.9427 3355.89 72.9427C3350.97 72.9427 3338.7 93.379 3338.7 98.7328C3338.7 104.087 3350.97 124.033 3355.89 124.033Z" fill="white"/>
<path d="M3398.56 347.86C3390.18 347.37 3372.25 344.096 3372.25 326.108V147.108C3372.25 142.122 3369.71 139.154 3367.2 139.154C3357.57 139.154 3351.38 156.684 3324.55 165.647C3322.48 166.137 3318.63 166.565 3318.63 169.563C3318.63 180.026 3342.67 159.712 3341.66 196.974V314.636C3342.58 344.739 3326.15 347.614 3317.06 347.614C3303.48 347.431 3306.88 349.145 3306.88 353.366C3307.27 358.353 3315.47 358.72 3328.94 358.781C3333.53 358.781 3344.99 357.038 3358.42 357.038C3375.58 357.038 3388.58 358.996 3397.37 358.996C3402.82 358.996 3409.6 345.993 3398.56 347.86" fill="white"/>
<path d="M2693.49 124.033C2698.81 124.033 2710.69 104.575 2710.69 98.7328C2710.69 92.8887 2698.81 72.9427 2693.49 72.9427C2688.58 72.9427 2676.32 93.379 2676.32 98.7328C2676.32 104.087 2688.58 124.033 2693.49 124.033Z" fill="white"/>
<path d="M2736.2 347.86C2727.79 347.37 2709.85 344.096 2709.85 326.108V147.108C2709.85 142.122 2707.35 139.154 2704.82 139.154C2695.19 139.154 2688.99 156.684 2662.19 165.647C2660.07 166.137 2656.22 166.565 2656.22 169.563C2656.22 180.026 2680.26 159.712 2679.26 196.974V314.636C2680.17 344.739 2663.74 347.614 2654.69 347.614C2653.56 347.602 2652.71 347.621 2651.8 347.633C2643.02 346.067 2634.75 342.463 2634.93 318.613V236.379C2634.93 198.473 2622.75 143.131 2566.64 143.131C2525.99 143.131 2505.05 181.679 2505.9 175.713V147.108C2505.9 142.122 2503.37 139.124 2500.87 139.124C2491.22 139.124 2484.05 155.491 2451.28 165.312C2449.18 165.801 2443.16 165.862 2442.96 169.655C2442.96 180.119 2475.87 156.042 2475.31 196.974V320.601C2475.31 353.029 2453.5 345.198 2448.55 353.672C2446.01 357.985 2452.67 358.996 2458.12 358.996C2463.15 358.996 2471.53 357.006 2493.73 357.006C2518.04 357.006 2526.42 358.996 2533.53 358.996C2539.82 358.996 2547.05 356.242 2542.75 352.021C2536.02 345.412 2505.9 353.029 2505.9 318.613V203.951C2505.46 195.966 2520.12 165.066 2555.33 165.066C2589.26 165.066 2604.33 202.45 2604.33 227.384V320.601C2603.9 357.191 2591.26 345.627 2586.31 353.029C2583.53 357.16 2588.4 358.996 2593.83 358.996C2599.31 358.996 2608.1 357.006 2624 357.006C2644.54 357.006 2653.53 358.903 2658.98 358.903C2659.6 358.903 2660.31 358.812 2661.03 358.678C2662.81 358.72 2664.49 358.775 2666.53 358.781C2671.15 358.781 2682.63 357.038 2696.02 357.038C2713.22 357.038 2726.19 358.996 2735.01 358.996C2740.44 358.996 2747.24 345.993 2736.2 347.86" fill="white"/>
<path d="M3265.49 236.282C3257.27 232.336 3244.92 225.268 3238.85 221.963C3212.56 207.555 3202.19 198.133 3201.46 184.701C3200.24 161.359 3220.03 149.306 3237.19 150.988C3278.21 150.254 3283.72 196.236 3287.92 196.236C3294.19 196.236 3292.54 190.209 3292.54 176.656C3292.54 173.138 3292.96 156.067 3290.43 152.06C3285.4 144.533 3256.37 140.127 3249.25 140.127C3247.48 140.127 3240.74 139.914 3239.58 139.883C3237.59 139.822 3235.02 140.127 3235.02 140.127C3205.76 139.639 3178.45 158.147 3179.31 197.306C3180.11 232.947 3222.05 253.291 3244.69 266.874C3261.42 276.39 3281.12 285.475 3280.87 308.328C3280.57 334.424 3260.35 351.708 3238.63 350.27C3187.69 349.415 3194.66 285.506 3185.5 285.506C3179.21 285.506 3180.5 301.568 3180.47 310.103C3180.41 330.324 3179.59 346.937 3182 349.904C3182.77 350.822 3185.25 350.363 3190.16 350.363C3200.2 350.363 3212.47 361.468 3241.78 361.468C3274.61 361.957 3304.07 331.548 3304.07 293.888C3304.07 270.729 3297.3 255.983 3265.49 236.282" fill="white"/>
<path d="M323.826 276.808V277.341C323.772 281.415 323.723 284.29 323.723 284.341V284.554L323.711 284.768C323.129 296.749 319.563 306.287 312.447 314.432C307.759 319.472 301.219 324.742 292.101 329.832C289.594 331.209 286.889 332.585 283.964 333.993C281.756 335.026 279.425 336.048 276.964 337.052L276.953 337.058C275.019 337.854 268.802 340.618 266.722 341.391L169.167 378.31L71.6122 341.391C69.5317 340.618 63.3153 337.854 61.3818 337.058L61.3696 337.052C58.9099 336.048 56.5787 335.026 54.3698 333.993C51.4453 332.585 48.7408 331.209 46.2321 329.832C37.1154 324.742 30.5746 319.472 25.894 314.432C18.7719 306.287 15.2047 296.749 14.6235 284.768L14.6112 284.554V284.341C14.6112 284.29 14.5623 281.415 14.5072 277.341V276.808V19.3123C103.998 37.8455 167.839 37.2534 169.155 37.2408V37.2346H169.167H169.18V37.2408C170.495 37.2534 234.336 37.8455 323.826 19.3123V276.808ZM169.18 20.4698H169.155C167.71 20.4823 97.8854 21.1355 0 0.865244V282.511V283.092C0.061186 287.547 0.116253 290.697 0.116253 290.745V290.979L0.128491 291.211C0.764825 304.318 4.66849 314.756 12.4514 323.658C17.5788 329.178 24.7314 334.94 34.7048 340.502C37.4459 342.008 40.4073 343.519 43.6011 345.054C46.018 346.187 48.5694 347.307 51.2556 348.402L51.2739 348.408C53.3847 349.277 60.1887 352.305 62.4648 353.143L169.167 393.533L275.869 353.143C278.145 352.305 284.949 349.277 287.061 348.408L287.078 348.402C289.764 347.307 292.316 346.187 294.733 345.054C297.927 343.519 300.889 342.008 303.636 340.502C313.603 334.94 320.755 329.178 325.883 323.658C333.666 314.756 337.57 304.318 338.206 291.211L338.218 290.979V290.745C338.224 290.697 338.273 287.547 338.334 283.092V282.511V0.865244C240.449 21.1355 170.624 20.4823 169.18 20.4698Z" fill="white"/>
<path d="M196.698 79.3806L179.939 91.8129L186.199 111.76L169.164 99.64L152.149 111.76L158.408 91.8129L141.631 79.3806L162.52 79.1974L169.164 59.3735L175.828 79.1974L196.698 79.3806ZM254.042 71.4878L260.687 51.6576L267.35 71.4878L288.22 71.671L271.462 84.0985L277.721 104.051L260.687 91.9241L243.67 104.051L249.931 84.0985L233.153 71.671L254.042 71.4878ZM94.6705 104.051L77.6364 91.9241L60.6205 104.051L66.8798 84.0985L50.1088 71.671L70.9915 71.4878L77.6364 51.6576L84.2995 71.4878L105.17 71.671L88.4112 84.0985L94.6705 104.051ZM169.177 52.563H169.152C167.954 52.5755 109.582 53.119 27.7637 36.1773V102.154C109.582 119.096 167.954 118.552 169.152 118.54H169.164H169.177C170.375 118.552 228.741 119.096 310.565 102.154V36.1773C228.741 53.119 170.375 52.5755 169.177 52.563" fill="white"/>
<path d="M176.489 297.479L172.725 307.943V325.663H165.604V307.943L161.84 297.479V277.63L169.164 270.308L176.489 277.63V297.479ZM178.036 331.01H191.039V337.697L182.79 344.312L178.036 339.173V331.01ZM178.036 307.955L186.872 298.233H206.568V307.606L200.896 313.321L192.104 307.612L192.098 307.606L185.146 315.132V325.663H178.036V307.955ZM234.499 282.721H248.291L254.476 289.532V301.934H249.495V294.561L244.632 289.287L244.626 289.293L238.47 293.289L234.499 289.293V282.721ZM258.196 313.113V305.679H263.177V313.113L265.814 317.941L260.687 324.286L255.559 317.941L258.196 313.113ZM255.559 282.196V268.3L260.687 263.173L265.814 268.3V282.196L263.177 289.525V301.934H258.196V289.525L255.559 282.196ZM266.898 305.679H276.001V310.353L270.226 314.985L266.898 311.393V305.679ZM266.898 289.532L273.083 282.721H286.873V289.293L282.903 293.289L276.748 289.293V289.287L271.877 294.561V301.934H266.898V289.532ZM254.476 311.393L251.148 314.985L245.371 310.353V305.679H254.476V311.393ZM169.164 357.588L161.84 348.527L165.604 341.632V331.01H172.725V341.632L176.489 348.527L169.164 357.588ZM160.293 325.663H153.183V315.132L146.232 307.606L146.226 307.612L137.433 313.321L131.768 307.606V298.233H151.457L160.293 307.955V325.663ZM160.293 339.173L155.538 344.312L147.291 337.697V331.01H160.293V339.173ZM103.824 289.293L99.853 293.289L93.6977 289.293V289.287L88.8272 294.561V301.934H83.8468V289.532L90.0327 282.721H103.824V289.293ZM92.9513 310.353L87.1815 314.985L83.8468 311.393V305.679H92.9513V310.353ZM82.7637 282.196L80.1328 289.525V301.934H75.1462V289.525L72.5151 282.196H72.509V268.3H72.5151L77.6364 263.173L82.7637 268.3V282.196ZM77.6364 324.286L72.509 317.941L75.1462 313.113V305.679H80.1328V313.113L82.7637 317.941L77.6364 324.286ZM71.4261 301.934H66.4455V294.561L61.5812 289.287L61.5751 289.293L55.4197 293.289L51.4549 289.293V282.721H65.24L71.4261 289.532V301.934ZM71.4261 311.393L68.0975 314.985L62.3216 310.353V305.679H71.4261V311.393ZM169.177 265.038H169.152C167.954 265.051 109.582 265.596 27.7637 248.653V272.087C27.8187 275.813 27.8616 278.439 27.8616 278.487V278.683L27.8738 278.879C28.4061 289.832 31.6674 298.557 38.1714 305.997C42.4545 310.604 48.4385 315.425 56.772 320.076C59.0664 321.337 61.5384 322.597 64.2122 323.882C66.2314 324.823 68.3605 325.76 70.6122 326.678L70.6183 326.684C72.3865 327.406 78.0709 329.945 79.9798 330.642L169.164 364.399L258.35 330.642C260.258 329.945 265.942 327.406 267.711 326.684L267.723 326.678C269.968 325.76 272.098 324.823 274.117 323.882C276.791 322.597 279.262 321.337 281.557 320.076C289.89 315.425 295.875 310.604 300.158 305.997C306.661 298.557 309.922 289.832 310.455 278.879L310.468 278.683V278.487C310.468 278.439 310.51 275.813 310.565 272.087V271.598V248.653C228.741 265.596 170.375 265.051 169.177 265.038" fill="white"/>
<path d="M176.119 229.252L169.167 235.273L162.217 229.252L158.276 225.837H101.777V141.805L89.8276 150.566V237.732H156.367L162.217 242.798L169.167 248.819L176.119 242.798L181.968 237.732H248.507V150.566L236.557 141.805V225.837H180.058L176.119 229.252Z" fill="white"/>
<path d="M162.216 136.606L160.111 134.783H113.732V213.952H160.208L163.446 216.76L169.166 221.71L174.887 216.76L178.124 213.952H224.601V134.783H178.221L176.118 136.606L169.166 142.627L162.216 136.606" fill="white"/>
<path d="M260.694 213.028C275.966 210.813 292.706 207.95 310.566 204.248V182.673V150.613C292.706 154.314 275.966 157.178 260.694 159.392V213.028Z" fill="white"/>
<path d="M77.6364 159.392C62.3643 157.178 45.6239 154.314 27.7637 150.613V182.673V204.248C45.6239 207.95 62.3643 210.813 77.6364 213.028V159.392Z" fill="white"/>
<path d="M636.109 730.83C632.151 745.778 625.084 769.842 619.999 780.88C612.083 782.838 588.324 789.342 567.968 789.342C497.566 789.342 466.746 733.437 466.746 681.747C466.746 613.158 512.558 568.308 575.609 568.308C598.506 568.308 617.73 575.448 625.648 577.069C627.911 595.273 629.612 608.611 631.301 626.159L623.102 628.435C615.472 593.987 598.506 580.006 567.968 580.006C520.756 580.006 495.585 625.834 495.585 675.243C495.585 736.037 526.685 777.637 569.663 777.637C598.506 777.637 613.771 759.759 627.911 727.575L636.109 730.83" fill="white"/>
<path d="M712.186 665.487H711.622L692.961 722.371H730.566L712.186 665.487ZM731.41 784.463V775.677L736.783 775.034C745.263 773.737 746.964 771.137 743 759.432L735.088 735.055H688.714C686.457 741.553 684.194 749.03 682.211 757.81C678.828 770.818 681.649 773.419 689.847 774.698L696.639 775.677V784.463H645.456V775.677C658.465 774.055 663.837 771.779 672.318 748.051L713.887 631.682L722.368 629.076L766.188 753.576C772.693 772.44 777.784 774.698 790.785 775.677V784.463H731.41Z" fill="white"/>
<path d="M982.206 642.413C961.28 644.359 959.873 645.338 960.147 668.424L961.848 750.009C962.13 772.44 963.263 773.737 982.775 775.677V784.463H919.154V775.677C937.816 773.737 939.235 772.758 939.235 749.679L939.797 656.058H938.946L888.896 781.856H882.962L839.703 658.34H838.859L836.025 718.474C834.613 741.229 834.613 752.934 835.175 761.053C835.463 771.461 839.703 774.055 854.687 775.677V784.463H801.816V775.677C814.543 774.379 819.347 771.137 820.76 761.377C822.174 751.3 823.874 738.635 825.282 717.495L828.678 671.66C830.372 645.338 828.678 644.359 808.602 642.413V633.639H852.424L893.425 739.271L938.102 633.639H982.206V642.413" fill="white"/>
<path d="M1041.32 711.97C1045 713.603 1050.65 715.225 1057.72 715.225C1067.62 715.225 1086.28 710.348 1086.28 678.483C1086.28 653.464 1071.86 643.392 1055.17 643.392C1041.6 643.392 1041.32 645.993 1041.32 657.037V711.97ZM1061.4 633.639C1091.93 633.639 1111.72 646.635 1111.72 678.164C1111.72 707.748 1092.21 723.026 1068.18 726.605C1064.5 727.248 1061.12 727.248 1058 727.248L1041.32 722.371V750.658C1041.32 772.097 1043.02 773.737 1063.66 775.677V784.463H998.91V775.677C1017.01 773.737 1018.7 772.44 1018.7 750.976V669.066C1018.7 645.338 1017.01 644.035 1000.04 642.413V633.639H1061.4" fill="white"/>
<path d="M1276.57 642.419C1262.99 643.722 1257.91 646.323 1257.06 657.685C1256.22 665.168 1255.65 675.888 1255.65 697.67V715.555C1255.65 737.337 1251.69 758.14 1240.1 771.466C1230.77 782.51 1216.63 788.684 1201.64 788.684C1188.35 788.684 1175.91 785.766 1166.02 776.985C1154.43 766.584 1147.92 749.684 1147.92 722.377V668.747C1147.92 645.998 1146.23 644.365 1128.13 642.419V633.645H1190.05V642.419C1172.24 644.365 1170.82 645.998 1170.82 668.747V715.23C1170.82 752.939 1183.55 772.764 1207.58 772.764C1233.03 772.764 1244.9 750.663 1244.9 712.63V697.67C1244.9 675.245 1244.33 665.492 1243.49 657.685C1242.36 646.323 1237.55 643.398 1221.44 642.419V633.645H1276.57V642.419Z" fill="white"/>
<path d="M1366.77 674.927C1361.12 655.085 1352.92 639.819 1336.24 639.819C1322.67 639.819 1315.04 651.205 1315.04 663.865C1315.04 680.77 1326.06 686.95 1339.91 693.772L1345.01 696.048C1363.94 704.835 1381.2 715.879 1381.2 742.213C1381.2 769.184 1360.27 788.684 1332.28 788.684C1314.19 788.684 1300.61 780.883 1295.52 777.303C1293.82 772.103 1291 752.939 1288.74 736.682L1296.94 735.061C1302.02 753.263 1314.47 778.282 1335.95 778.282C1349.81 778.282 1359.14 767.244 1359.14 752.284C1359.14 734.418 1347.54 727.253 1336.24 721.734L1330.01 718.479C1314.47 710.672 1294.39 699.297 1294.39 674.603C1294.39 648.268 1311.92 629.416 1341.33 629.416C1354.05 629.416 1364.51 633.645 1369.6 635.603C1371.58 645.344 1372.71 657.367 1374.69 673.624L1366.77 674.927" fill="white"/>
<path d="M1627.2 730.83C1623.23 745.778 1616.17 769.842 1611.08 780.88C1603.15 782.838 1579.41 789.342 1559.04 789.342C1488.64 789.342 1457.83 733.437 1457.83 681.747C1457.83 613.158 1503.63 568.308 1566.69 568.308C1589.59 568.308 1608.81 575.448 1616.73 577.069C1618.99 595.273 1620.7 608.611 1622.37 626.159L1614.18 628.435C1606.55 593.987 1589.59 580.006 1559.04 580.006C1511.83 580.006 1486.66 625.834 1486.66 675.243C1486.66 736.037 1517.77 777.637 1560.74 777.637C1589.59 777.637 1604.84 759.759 1618.99 727.575L1627.2 730.83" fill="white"/>
<path d="M1703.26 665.487H1702.7L1684.05 722.371H1721.64L1703.26 665.487ZM1722.5 784.463V775.677L1727.86 775.034C1736.35 773.737 1738.04 771.137 1734.07 759.432L1726.16 735.055H1679.8C1677.53 741.553 1675.27 749.03 1673.28 757.81C1669.9 770.818 1672.72 773.419 1680.93 774.698L1687.71 775.677V784.463H1636.54V775.677C1649.54 774.055 1654.91 771.779 1663.4 748.051L1704.96 631.682L1713.45 629.076L1757.27 753.576C1763.77 772.44 1768.86 774.698 1781.86 775.677V784.463H1722.5" fill="white"/>
<path d="M1849.17 709.366C1857.08 709.366 1863.86 708.063 1869.8 704.166C1877.16 698.965 1880.83 688.563 1880.83 676.858C1880.83 653.137 1866.98 643.714 1850.58 643.714C1838.71 643.714 1837.56 646.632 1837.56 656.398V709.366H1849.17ZM1927.77 786.418H1921.27C1898.64 786.418 1889.6 779.253 1881.11 765.278C1874.89 754.87 1866.98 739.611 1863.02 731.473C1857.93 721.726 1854.81 719.45 1843.78 719.45H1837.56V749.676C1837.56 772.094 1839.27 774.052 1857.64 775.674V784.46H1794.88V775.674C1813.54 774.052 1815.23 772.094 1815.23 749.676V668.739C1815.23 645.011 1813.54 644.032 1795.73 642.411V633.637H1857.93C1872.35 633.637 1882.8 635.595 1891.29 641.432C1899.48 647.281 1905.7 657.677 1905.7 672.637C1905.7 693.764 1892.42 705.805 1878.85 711.643C1882.24 718.147 1891.01 735.052 1897.51 745.448C1904.59 757.153 1908.25 762.353 1913.06 768.215C1917.87 774.052 1923.53 776.977 1928.62 778.935L1927.77 786.418" fill="white"/>
<path d="M1978.39 748.051C1978.39 768.86 1982.92 773.737 1999.04 773.737C2032.68 773.737 2050.21 748.051 2050.21 708.403C2050.21 660.941 2027.59 644.035 1996.49 644.035C1988.29 644.035 1982.64 645.656 1980.95 648.263C1979.24 650.221 1978.39 654.443 1978.39 663.541V748.051ZM1999.89 633.639C2024.2 633.639 2045.12 639.158 2059.27 654.118C2069.45 664.838 2076.79 682.399 2076.79 703.85C2076.79 759.432 2037.78 784.463 1991.41 784.463H1934.85V775.677C1953.8 774.055 1955.49 772.097 1955.49 749.354V669.403C1955.49 645.338 1953.8 644.035 1936.56 642.413V633.639H1999.89" fill="white"/>
<path d="M2249.26 622.255C2244.47 601.796 2236.82 579.351 2212.23 579.351C2190.46 579.351 2180.84 597.231 2180.84 614.79C2180.84 638.519 2194.42 649.887 2216.76 662.883C2239.1 676.222 2265.66 691.169 2265.66 727.893C2265.66 762.035 2240.5 789.342 2202.9 789.342C2191.31 789.342 2181.99 786.742 2175.19 784.466C2168.12 781.541 2163.88 779.259 2161.06 777.637C2159.07 770.821 2155.4 742.853 2153.42 727.251L2161.9 724.975C2166.13 744.811 2178.87 777.637 2208.27 777.637C2229.76 777.637 2242.2 762.359 2242.2 738.637C2242.2 714.573 2226.66 703.211 2205.45 690.209C2187.34 678.822 2158.79 662.883 2158.79 626.159C2158.79 594.954 2180.56 568.308 2217.04 568.308C2230.04 568.308 2241.91 571.869 2252.66 575.785C2253.8 587.471 2255.2 600.156 2257.47 620.64L2249.26 622.255Z" fill="white"/>
<path d="M2395.17 744.472C2393.76 754.237 2389.51 777.635 2387.82 784.463H2278.68V775.677C2298.76 773.737 2300.17 771.779 2300.17 748.7V669.403C2300.17 645.656 2298.76 644.035 2280.65 642.738V633.639H2382.43C2382.71 640.137 2383.58 656.058 2384.7 671.024L2377.07 671.66C2374.52 661.595 2372.27 656.058 2369.43 652.16C2365.75 646.635 2361.24 644.359 2345.97 644.359H2330.98C2323.63 644.359 2323.07 644.677 2323.07 653.464V700.271H2343.71C2360.68 700.271 2362.08 698.325 2364.62 682.399H2372.55V731.476H2364.62C2362.08 714.894 2360.68 712.624 2343.71 712.624H2323.07V750.009C2323.07 762.356 2324.48 768.218 2327.88 770.818C2331.26 773.419 2338.04 774.055 2349.65 774.055C2364.06 774.055 2371.42 772.097 2376.51 765.936C2379.89 761.377 2383.58 754.555 2387.26 742.85L2395.17 744.472" fill="white"/>
<path d="M2464.74 709.366C2472.66 709.366 2479.45 708.063 2485.38 704.166C2492.73 698.965 2496.41 688.563 2496.41 676.858C2496.41 653.137 2482.56 643.714 2466.16 643.714C2454.27 643.714 2453.15 646.632 2453.15 656.398V709.366H2464.74ZM2543.35 786.418H2536.85C2514.23 786.418 2505.16 779.253 2496.69 765.278C2490.47 754.87 2482.56 739.611 2478.6 731.473C2473.51 721.726 2470.41 719.45 2459.36 719.45H2453.15V749.676C2453.15 772.094 2454.84 774.052 2473.23 775.674V784.46H2410.46V775.674C2429.12 774.052 2430.81 772.094 2430.81 749.676V668.739C2430.81 645.011 2429.12 644.032 2411.31 642.411V633.637H2473.51C2487.93 633.637 2498.4 635.595 2506.87 641.432C2515.06 647.281 2521.3 657.677 2521.3 672.637C2521.3 693.764 2508 705.805 2494.44 711.643C2497.83 718.147 2506.59 735.052 2513.09 745.448C2520.15 757.153 2523.84 762.353 2528.64 768.215C2533.45 774.052 2539.11 776.977 2544.2 778.935L2543.35 786.418" fill="white"/>
<path d="M2683.6 642.42C2668.06 645.021 2665.23 647.621 2656.47 668.431C2648.26 687.612 2629.87 739.278 2613.21 787.707H2604.44C2589.73 745.458 2570.23 691.492 2560.05 663.224C2553.83 646 2549.58 644.366 2536.86 642.42V633.646H2596.81V642.42L2588.88 644.042C2581.25 645.663 2580.13 647.946 2583.51 658.023C2588.32 672.646 2603.31 714.577 2616.03 750.983C2626.48 722.696 2641.76 676.868 2646.84 659.644C2649.97 647.946 2648.83 645.663 2638.65 643.399L2632.43 642.42V633.646H2683.6V642.42" fill="white"/>
<path d="M2696.34 784.463V775.677C2714.45 773.737 2716.14 772.44 2716.14 749.03V669.066C2716.14 645.338 2714.45 644.035 2696.34 642.413V633.639H2759.12V642.413C2740.73 644.359 2739.04 645.338 2739.04 669.066V749.03C2739.04 772.44 2740.73 773.737 2759.12 775.677V784.463H2696.34Z" fill="white"/>
<path d="M2905.31 740.898C2903.05 752.284 2897.68 773.424 2893.72 781.862C2888.08 783.82 2866.85 788.684 2853.01 788.684C2801.53 788.684 2777.24 750.981 2777.24 710.672C2777.24 661.925 2812.3 629.416 2857.52 629.416C2875.34 629.416 2890.05 633.963 2897.4 636.563C2899.1 649.247 2899.67 661.601 2901.34 676.224L2893.15 677.846C2887.51 649.565 2873.37 639.819 2852.72 639.819C2824.17 639.819 2803.81 667.768 2803.81 706.774C2803.81 749.036 2826.42 777.964 2853.85 777.964C2874.21 777.964 2886.93 764.962 2897.4 738.958L2905.31 740.898" fill="white"/>
<path d="M3036.23 744.472C3034.82 754.237 3030.56 777.635 3028.87 784.463H2919.73V775.677C2939.81 773.737 2941.22 771.779 2941.22 748.7V669.403C2941.22 645.656 2939.81 644.035 2921.72 642.738V633.639H3023.5C3023.8 640.137 3024.63 656.058 3025.77 671.024L3018.13 671.66C3015.59 661.595 3013.33 656.058 3010.5 652.16C3006.83 646.635 3002.31 644.359 2987.03 644.359H2972.04C2964.68 644.359 2964.12 644.677 2964.12 653.464V700.271H2984.78C3001.74 700.271 3003.14 698.325 3005.69 682.399H3013.6V731.476H3005.69C3003.14 714.894 3001.74 712.624 2984.78 712.624H2964.12V750.009C2964.12 762.356 2965.54 768.218 2968.94 770.818C2972.34 773.419 2979.11 774.055 2990.7 774.055C3005.13 774.055 3012.47 772.097 3017.56 765.936C3020.96 761.377 3024.63 754.555 3028.31 742.85L3036.23 744.472" fill="white"/>
<path d="M3129.82 674.927C3124.17 655.085 3115.96 639.819 3099.28 639.819C3085.71 639.819 3078.09 651.205 3078.09 663.865C3078.09 680.77 3089.11 686.95 3102.96 693.772L3108.05 696.048C3127 704.835 3144.23 715.879 3144.23 742.213C3144.23 769.184 3123.31 788.684 3095.32 788.684C3077.22 788.684 3063.66 780.883 3058.55 777.303C3056.88 772.103 3054.04 752.939 3051.79 736.682L3059.98 735.061C3065.07 753.263 3077.51 778.282 3099 778.282C3112.84 778.282 3122.18 767.244 3122.18 752.284C3122.18 734.418 3110.6 727.253 3099.28 721.734L3093.08 718.479C3077.51 710.672 3057.44 699.297 3057.44 674.603C3057.44 648.268 3074.97 629.416 3104.37 629.416C3117.1 629.416 3127.57 633.645 3132.64 635.603C3134.63 645.344 3135.76 657.367 3137.73 673.624L3129.82 674.927" fill="white"/>
</g>
<path d="M5495.63 482.134L5482.24 468.746L5555.87 395.114L5482.24 321.482L5495.63 308.094L5569.26 381.726L5642.89 308.094L5656.28 321.482L5582.65 395.114L5656.28 468.746L5642.89 482.134L5569.26 408.502L5495.63 482.134Z" fill="white"/>
<path d="M6266.42 54.7064C6258.14 55.3265 6227.97 59.5891 6221.55 60.9842C6217.37 61.8367 6207.55 64.1618 6199.5 66.0994C6194.55 67.262 6174.28 73.5397 6171.27 74.8573C6170.42 75.2448 6166.78 76.6399 6163.14 77.9574C6153.4 81.6776 6137.69 88.8854 6127.95 94.1556C6125.86 95.3182 6121.29 97.7983 6117.89 99.6584C6114.49 101.441 6111.16 103.379 6110.54 103.844C6109.92 104.386 6107.14 106.169 6104.35 107.796C6092.75 114.772 6072.48 130.117 6060.8 140.735C6049.74 150.811 6034.57 166.466 6025.6 177.162C6022.89 180.339 6020.11 183.672 6019.34 184.525C6014.07 190.492 5997.67 214.596 5991.95 224.749C5988.31 231.182 5976.32 254.82 5973.85 260.478C5971.53 265.671 5964.64 284.039 5964.1 286.441C5963.87 287.526 5962.55 291.479 5961.24 295.354C5959.92 299.152 5958.3 304.422 5957.68 306.98C5954.51 319.535 5951.57 333.486 5950.87 339.144C5950.56 341.469 5950.02 344.956 5949.64 346.894C5947.24 359.062 5945.69 389.676 5946.62 409.672C5947.39 428.66 5950.02 450.671 5953.12 464.312C5953.74 467.257 5954.59 471.132 5954.97 472.837C5956.13 478.107 5957.53 483.3 5960.62 493.763C5962.32 499.266 5964.1 505.388 5964.72 507.326C5965.73 510.659 5970.21 522.052 5972.46 527.089C5973 528.329 5974.85 532.515 5976.56 536.39C5978.26 540.187 5981.51 547.008 5983.83 551.503C5988.08 559.796 5990.02 563.206 5998.76 577.544C6000.92 581.109 6007.42 590.642 6012.84 598.082C6014.23 599.942 6016.32 602.81 6017.48 604.515C6018.64 606.143 6021.27 609.243 6023.28 611.49C6025.21 613.661 6027.07 616.373 6027.38 617.381C6027.61 618.466 6028.85 620.016 6030.09 620.868C6031.4 621.721 6035.04 625.286 6038.29 628.851C6044.24 635.361 6061.03 651.172 6067.14 656.132C6069 657.605 6072.17 660.24 6074.18 661.945C6077.43 664.735 6081.45 667.758 6094.45 677.058C6103.19 683.414 6123.46 695.272 6135.29 701.084C6150.77 708.68 6179.08 719.84 6189.45 722.398C6191.77 722.94 6195.79 724.025 6198.34 724.723C6210.56 728.133 6232.69 732.551 6243.6 733.713C6247.23 734.101 6252.49 734.721 6255.35 735.186C6262.24 736.193 6309.43 736.193 6317.86 735.186C6321.5 734.721 6327.37 734.023 6331.01 733.636C6339.44 732.706 6360.56 728.753 6368.53 726.66C6371.93 725.73 6375.8 724.723 6377.04 724.335C6385.24 722.165 6391.81 720.305 6394.68 719.22C6396.46 718.6 6400.71 717.05 6404.11 715.887C6407.52 714.647 6412.39 712.71 6414.94 711.625C6417.5 710.462 6421.83 708.602 6424.61 707.517C6435.29 703.254 6456.49 691.861 6468.32 684.111C6471.34 682.173 6474.51 680.236 6475.36 679.771C6476.29 679.383 6477.99 678.221 6479.23 677.213C6480.47 676.206 6484.95 672.951 6489.21 669.85C6496.09 664.89 6499.03 662.565 6508.47 654.582C6519.69 645.127 6533.92 631.021 6545.45 617.846C6555.89 605.91 6573.06 582.194 6578.25 572.429C6579.1 570.956 6580.41 568.631 6581.34 567.391C6582.19 566.073 6583.51 563.981 6584.13 562.741C6587.38 556.308 6591.78 548.093 6592.33 547.318C6592.71 546.853 6594.11 543.83 6595.5 540.652C6596.89 537.475 6598.82 533.057 6599.83 530.964C6611.67 504.691 6620.64 471.209 6625.82 433.698C6627.83 419.127 6628.68 384.096 6627.37 372.005C6623.19 334.183 6616.46 302.795 6607.88 280.706C6606.17 276.521 6604.86 272.723 6604.86 272.336C6604.86 271.948 6603.78 269.236 6602.46 266.446C6601.15 263.578 6599.44 259.703 6598.67 257.765C6595.73 250.402 6583.35 226.609 6579.02 219.789C6577.47 217.463 6567.49 202.505 6563.86 197.08C6560.76 192.43 6554.27 184.137 6545.37 173.442C6535.55 161.506 6515.28 141.898 6502.28 131.59C6498.96 128.877 6495.16 125.855 6493.85 124.769C6483.1 115.934 6462.83 102.991 6444.57 93.5356C6440.4 91.3655 6436.37 89.2729 6435.68 88.8854C6433.82 87.8004 6424.69 83.6927 6418.04 80.9026C6409.07 77.1049 6389.26 70.2846 6379.36 67.572C6358.47 61.9142 6351.05 60.4417 6328.3 57.3416C6323.66 56.7215 6317.86 55.869 6315.54 55.4815C6309.97 54.3964 6276.32 53.8539 6266.42 54.7064ZM6398.85 256.293C6400.01 256.68 6404.42 259.005 6408.52 261.33C6418.97 267.298 6421.29 267.841 6440.86 268.306C6462.44 268.848 6480.7 271.716 6485.73 275.436C6489.98 278.614 6491.22 284.194 6489.29 291.479C6487.04 300.16 6482.4 305.352 6472.58 310.39C6469.79 311.863 6466.08 314.033 6464.3 315.195C6462.52 316.435 6460.74 317.443 6460.28 317.443C6459.89 317.443 6454.32 322.635 6448.05 328.913C6440.7 336.276 6434.13 342.011 6430.03 344.801C6421.98 350.149 6420.36 351.544 6416.18 357.202C6410.77 364.565 6410.46 365.96 6410.07 386.188C6409.76 402.464 6409.92 404.944 6411.46 412.462C6413.09 420.445 6417.57 432.148 6420.67 436.643C6421.44 437.805 6423.69 441.138 6425.62 444.161C6429.8 450.516 6430.88 451.989 6443.88 468.574C6446.04 471.364 6449.52 475.937 6451.61 478.805C6457.26 486.71 6458.81 487.718 6468.4 489.81C6474.9 491.283 6476.99 492.058 6478.07 493.453C6479.69 495.623 6479.93 497.483 6478.69 499.731C6475.05 506.628 6445.96 503.606 6424.92 494.15C6422.14 492.833 6419.43 491.825 6418.89 491.825C6418.35 491.825 6417.57 491.438 6417.11 490.973C6416.65 490.508 6413.55 488.88 6410.23 487.253C6390.89 478.185 6371.78 461.599 6365.9 448.811C6365.51 447.958 6363.66 443.696 6361.72 439.433C6357.93 430.675 6355.46 426.722 6353.75 426.722C6351.97 426.722 6347.1 430.133 6344.01 433.543C6339.06 439.045 6335.5 448.501 6332.48 464.312C6332.02 466.869 6330.62 472.682 6329.39 477.255C6326.6 487.64 6326.45 491.748 6328.92 493.995C6330.93 495.855 6336.27 497.638 6342.46 498.413C6345.79 498.878 6346.87 499.343 6348.42 501.436C6351.67 505.698 6350.66 508.954 6345.32 511.279C6342.38 512.596 6339.75 512.751 6322.73 512.984C6303.63 513.139 6303.55 513.139 6300.53 511.279C6295.74 508.256 6291.48 500.196 6288.23 487.95C6285.52 477.72 6285.14 472.062 6285.68 451.679C6286.38 427.808 6286.3 420.367 6285.29 419.36C6283.67 417.732 6276.01 416.647 6263.25 416.105C6250.48 415.639 6249.94 415.717 6249.17 417.19C6248.24 418.895 6247.08 424.785 6245.53 436.41C6243.75 449.431 6242.13 459.429 6240.97 464.699C6239.26 471.984 6239.42 477.642 6241.35 481.362C6243.29 485.16 6247.31 488.958 6251.8 491.05C6259.45 494.77 6264.02 500.661 6262.16 504.303C6260.07 508.101 6252.65 509.651 6236.63 509.651C6222.09 509.651 6209.09 508.411 6206.62 506.783C6204.07 505.156 6202.98 502.211 6201.13 491.05C6198.5 475.55 6193.62 457.181 6190.06 449.198C6185.66 439.511 6183.1 434.628 6181.09 432.148L6178.77 429.435L6173.9 433.31C6171.19 435.403 6167.55 438.425 6165.85 439.976C6164.15 441.603 6158.97 446.253 6154.25 450.438C6149.61 454.546 6145.58 458.266 6145.51 458.654C6145.04 459.739 6130.65 470.202 6126.86 472.294C6116.34 477.875 6114.02 480.897 6114.8 488.105C6115.03 490.585 6115.72 493.763 6116.26 495.08C6117.58 498.258 6118.59 508.721 6117.97 512.286C6117.58 514.456 6116.96 515.154 6114.72 515.851C6109.15 517.711 6102.8 513.449 6094.76 502.443C6091.59 498.103 6088.03 493.375 6086.79 491.903C6083.93 488.338 6079.91 482.137 6077.9 477.875C6076.66 475.472 6076.19 472.992 6076.19 469.349C6076.19 463.537 6077.82 459.739 6083 453.461C6095.61 438.348 6101.1 427.032 6116.81 383.708C6117.58 381.538 6118.66 378.593 6119.28 377.12C6119.9 375.648 6120.83 373.168 6121.45 371.695C6123.3 366.967 6133.83 346.584 6135.29 344.956C6135.99 344.104 6137.07 342.554 6137.62 341.469C6141.02 334.804 6161.67 311.242 6164.07 311.242C6164.38 311.242 6166.01 310.08 6167.55 308.685C6170.42 306.205 6179.31 300.857 6186.35 297.447C6207.32 287.371 6237.56 282.644 6273.77 283.651C6295.66 284.271 6314.92 283.186 6332.94 280.241C6342.07 278.769 6351.12 277.761 6359.25 277.529C6383.07 276.676 6389.03 273.886 6389.03 263.81C6389.03 260.013 6389.34 258.928 6390.96 257.378C6392.97 255.285 6395.37 254.975 6398.85 256.293Z" fill="white"/>
<defs>
<clipPath id="clip0_1103_165">
<rect width="5192.18" height="788.506" fill="white" transform="translate(0 0.86084)"/>
</clipPath>
</defs>
</svg>
