<?xml version="1.0" encoding="UTF-8" standalone="no"?>
<svg
   xmlns:dc="http://purl.org/dc/elements/1.1/"
   xmlns:cc="http://creativecommons.org/ns#"
   xmlns:rdf="http://www.w3.org/1999/02/22-rdf-syntax-ns#"
   xmlns:svg="http://www.w3.org/2000/svg"
   xmlns="http://www.w3.org/2000/svg"
   xmlns:sodipodi="http://sodipodi.sourceforge.net/DTD/sodipodi-0.dtd"
   xmlns:inkscape="http://www.inkscape.org/namespaces/inkscape"
   version="1.1"
   id="svg2"
   xml:space="preserve"
   width="441.97333"
   height="67.120003"
   viewBox="0 0 441.97333 67.120003"
   sodipodi:docname="CAMPUS_CARD_SERVICES_1line_rev(1c).eps"><metadata
     id="metadata8"><rdf:RDF><cc:Work
         rdf:about=""><dc:format>image/svg+xml</dc:format><dc:type
           rdf:resource="http://purl.org/dc/dcmitype/StillImage" /></cc:Work></rdf:RDF></metadata><defs
     id="defs6" /><sodipodi:namedview
     pagecolor="#ffffff"
     bordercolor="#666666"
     borderopacity="1"
     objecttolerance="10"
     gridtolerance="10"
     guidetolerance="10"
     inkscape:pageopacity="0"
     inkscape:pageshadow="2"
     inkscape:window-width="640"
     inkscape:window-height="480"
     id="namedview4" /><g
     id="g10"
     inkscape:groupmode="layer"
     inkscape:label="ink_ext_XXXXXX"
     transform="matrix(1.3333333,0,0,-1.3333333,0,67.12)"><g
       id="g12"
       transform="scale(0.1)"><path
         d="M 297.492,183.336 H 3314.79"
         style="fill:#ffffff;fill-opacity:1;fill-rule:nonzero;stroke:none"
         id="path14" /><path
         d="M 3314.8,179.551 H 297.492 v 7.57 H 3314.8 v -7.57"
         style="fill:#ffffff;fill-opacity:1;fill-rule:nonzero;stroke:none"
         id="path16" /><path
         d="m 2400.57,424.746 c 3.39,0 10.97,12.422 10.97,16.152 0,3.731 -7.58,16.465 -10.97,16.465 -3.13,0 -10.96,-13.047 -10.96,-16.465 0,-3.418 7.83,-16.152 10.96,-16.152"
         style="fill:#ffffff;fill-opacity:1;fill-rule:nonzero;stroke:none"
         id="path18" /><path
         d="m 2543.28,300.527 v 52.5 c 0,24.2 -7.77,59.532 -43.61,59.532 -25.94,0 -39.32,-24.61 -38.77,-20.801 v 18.262 c 0,3.183 -1.62,5.097 -3.22,5.097 -6.16,0 -10.73,-10.449 -31.65,-16.719 -1.34,-0.312 -5.17,-0.351 -5.31,-2.773 0,-6.68 21,8.691 20.65,-17.441 v -78.926 c 0,-14.809 -7.25,-15.961 -12.53,-17.387 -0.34,-0.008 -0.59,0.055 -1.01,-0.016 -5.37,0.313 -16.81,2.403 -16.81,13.887 V 410.02 c 0,3.183 -1.61,5.078 -3.21,5.078 -6.15,0 -10.12,-11.192 -27.22,-16.914 -1.35,-0.313 -3.81,-0.586 -3.81,-2.5 0,-6.68 15.35,6.289 14.7,-17.5 v -75.118 c 0.59,-19.218 -9.9,-21.054 -15.68,-21.054 -8.67,0.117 -6.52,-0.977 -6.52,-3.672 0.27,-3.184 5.49,-3.418 14.08,-3.457 2.95,0 10.27,1.113 18.83,1.113 10.97,0 19.25,-1.25 24.88,-1.25 3.22,0 11.89,1.27 26.05,1.27 15.53,0 20.88,-1.27 25.41,-1.27 4.03,0 8.64,1.758 5.9,4.453 -4.31,4.219 -23.53,-0.644 -23.53,21.328 v 73.203 c -0.28,5.098 9.08,24.825 31.56,24.825 21.66,0 31.29,-23.867 31.29,-39.785 v -59.512 c -0.27,-23.36 -8.34,-15.977 -11.5,-20.703 -1.78,-2.637 1.32,-3.809 4.8,-3.809 3.5,0 9.1,1.27 19.26,1.27 13.1,0 18.85,-1.211 22.32,-1.211 2.68,0 7.54,2.05 4.55,4.472 -6.75,5.43 -20.07,-2.851 -19.9,21.25"
         style="fill:#ffffff;fill-opacity:1;fill-rule:nonzero;stroke:none"
         id="path20" /><path
         d="m 505.078,484.258 c 3.774,0.547 5.656,1.953 5.656,1.953 0,2.519 -0.535,3.086 -4.043,3.086 -6.73,0 -10.773,-1.133 -17.507,-1.133 -7.27,0 -12.93,0.84 -19.125,0.84 -3.504,0 -3.235,-1.113 -3.235,-3.086 0,-2.227 6.735,-0.82 10.508,-9.219 2.152,-4.472 1.348,-14.004 -0.809,-19.59 l -51.718,-141.933 -22.09,62.969 -8.625,22.968 c 0,0 -1.344,-0.566 4.848,18.477 l 12.125,36.387 c 5.929,17.91 11.835,27.304 19.394,27.441 9.516,0.156 9.504,5.879 2.227,5.879 -7.27,0 -11.657,-0.567 -18.121,-0.567 -6.731,0 -10.235,0.567 -17.508,0.567 -2.692,0 -5.657,-0.84 -5.387,-3.086 0.27,-2.246 4.309,-1.406 7.27,-3.066 4.855,-2.54 8.082,-12.891 4.582,-23.809 l -14.278,-45.625 -16.164,42.539 c -3.23,8.125 -7.5,25.977 0.328,27.598 7.551,1.543 6.524,5.449 1.946,5.449 -8.887,0 -13.586,-1.133 -22.207,-1.133 -9.43,0 -16.434,1.133 -25.321,1.133 -1.886,0 -5.39,-0.293 -4.308,-3.926 0.535,-2.226 5.117,-1.406 7.812,-3.086 10.77,-6.992 12.93,-15.957 16.699,-26.035 l 23.703,-66.895 c 4.313,-12.031 4.583,-7.558 1.083,-17.929 l -20.743,-56.817 -50.918,145.84 c -4.039,10.938 -6.191,18.496 2.696,22.696 3.773,1.953 4.886,2.324 5.39,3.066 0.496,0.742 0.961,3.281 -4.582,3.086 -9.156,-0.332 -14.82,-1.133 -23.972,-1.133 -9.7,0 -16.434,1.133 -25.325,1.133 -2.964,0 -3.5,-1.406 -3.5,-3.633 0,-3.379 7.27,-1.133 13.465,-8.398 3.504,-3.926 10.242,-17.09 11.852,-21.856 l 61.496,-176.699 c 1.121,-2.637 1.398,-7.773 5.043,-7.773 2.816,0.019 3.363,5.937 4.344,8.183 l 32.296,88.672 31.52,-84.258 c 1.34,-3.359 3.156,-12.578 6.461,-12.597 2.723,0 3.703,4.355 5.109,8.574 l 60.891,174.218 c 5.117,14.004 11.043,28.848 20.742,30.528"
         style="fill:#ffffff;fill-opacity:1;fill-rule:nonzero;stroke:none"
         id="path22" /><path
         d="m 1183.64,282.285 c -31.29,0 -43.6,38.809 -43.6,70.449 0,27.422 10.7,52.676 36.91,52.676 31.83,0 43.33,-33.965 43.33,-67.207 0,-40.019 -14.17,-55.918 -36.64,-55.918 z m -175.43,49.668 c -21.491,0 -28.671,20.742 -28.671,40.352 0,20.234 6.109,36.972 27.601,36.972 21.78,0 30.49,-22.343 30.49,-41.953 0,-19.941 -9.1,-35.371 -29.42,-35.371 z m -20.827,-47.187 c 2.168,0.136 2.765,-0.782 27.247,-1.778 25.32,-0.586 34.44,-8.008 35.99,-14.531 2.75,-11.562 -5.49,-36.367 -41.83,-33.965 -22.864,1.485 -29.56,12.363 -31.329,14.883 -8.527,12.07 -1.496,34.707 9.922,35.391 z M 1180.96,415 c -33.7,0 -59.64,-33.887 -59.64,-73.574 0,-20.16 5.44,-36.25 14.67,-47.781 -3.2,-2.176 -9.49,-7.18 -22.21,-7.18 -11.04,0 -17.42,6.562 -17.98,20.723 v 86.269 c 0,0 33.07,0.098 34.91,0.098 2.28,0 6.71,14.922 6.87,15.683 0.39,1.875 1.03,3.379 1.23,4.727 0.44,2.851 -1.77,3.086 -3.77,0.078 -1.62,-1.543 -3.31,-5.664 -10.21,-5.664 h -28.97 c 0,24.883 0.28,36.172 -3.59,36.172 -3.7,0 -3.14,-1.016 -6.5,-12.09 -4.5,-14.883 -18.45,-22.992 -27.17,-27.715 -3.91,-0.887 -8.35,-1.207 -13.3,-0.117 -7.58,1.66 -16.54,10.859 -39.45,10.859 -24.573,0 -46.061,-20.078 -46.061,-47.011 0,-14.512 6.414,-28.477 17.734,-35.879 -2.093,-1.25 -15.796,-12.793 -14.136,-26.368 0,0 -0.278,-14.062 10.765,-18.808 -3.429,-1.367 -6.871,-3.656 -9.933,-6.543 -7.219,2.648 -17.789,0.644 -17.789,19.668 v 52.519 c 0,24.2 -7.758,59.512 -43.598,59.512 -25.945,0 -39.316,-24.609 -38.785,-20.781 v 18.242 c 0,3.184 -1.602,5.098 -3.207,5.098 -6.152,0 -7.488,-10.215 -30.012,-16.016 -1.336,-0.332 -4.351,-1.035 -4.488,-3.476 0,-6.68 18.066,7.304 18.183,-17.442 v -78.926 c 0,-16.972 -13.464,-17.011 -15.851,-17.246 -0.953,0 -2.016,-0.043 -3.192,-0.058 -5.691,0.547 -15.585,3.058 -15.585,13.769 V 410.02 c 0,3.183 -1.606,5.078 -3.211,5.078 -6.153,0 -10.11,-11.192 -27.227,-16.914 -1.34,-0.313 -3.801,-0.586 -3.801,-2.5 0,-6.68 15.36,6.289 14.715,-17.5 v -75.118 c 0.555,-18.359 -8.949,-20.828 -14.848,-21.015 -7.125,0.863 -12.566,3.762 -12.566,14.648 v 53.145 c 0,27.383 -10.43,62.715 -44.664,62.715 -15.246,0 -28.352,-8.399 -38.516,-19.844 v 91.484 c 0,3.184 -1.609,5 -3.207,5.098 -4.117,0.254 -11.023,-12.324 -30.55,-16.777 -1.34,-0.313 -6.364,-0.723 -6.364,-2.637 0,-6.68 20.262,3.164 20.598,-17.5 V 296.387 c 0,-15.606 -13.359,-13.477 -15.781,-18.457 -0.418,-2.168 0.8,-3.184 2.675,-3.184 4.278,0 16.043,1.25 24.336,1.25 8.293,0 21.668,-1.25 27.286,-1.25 3.21,0 4.543,0.625 4.543,4.453 -2.793,5.43 -23.536,-2.871 -23.536,24.512 v 67.148 c 0,16.231 19.258,28.653 31.297,28.653 9.36,0 32.364,-7.324 32.364,-46.797 v -58.242 c 0,-11.465 -12.176,-12.657 -13.106,-16.25 0,-2.539 1.602,-3.477 4.277,-3.477 2.942,0 11.496,1.25 21.934,1.25 5.828,0 11.094,-0.301 15.531,-0.566 2.414,-0.461 5.867,-0.528 10.164,-0.547 2.942,0 10.27,1.113 18.828,1.113 8.446,0 15.266,-0.73 20.539,-1.07 1.028,-0.063 2.075,-0.106 3.145,-0.129 0.375,-0.012 0.836,-0.051 1.191,-0.051 0.02,0 0.043,0.016 0.063,0.016 3.266,-0.051 6.301,0.004 7.555,0.004 3.207,0 8.558,1.269 22.734,1.269 15.512,0 20.859,-1.269 25.41,-1.269 4.008,0 8.621,1.777 5.883,4.453 -4.305,4.219 -23.539,-0.645 -23.539,21.328 v 73.203 c -0.266,5.098 9.098,24.824 31.562,24.824 21.664,0 31.293,-23.867 31.293,-39.785 v -59.512 c 0,-20.703 -8.328,-15.976 -11.5,-20.703 -1.777,-2.636 1.34,-3.808 4.817,-3.808 3.476,0 9.09,1.269 19.258,1.269 9.628,0 15.769,-0.683 19.742,-1.047 -2.949,-4.308 -5.004,-9.261 -5.293,-14.48 -1.434,-25.879 30.297,-35.156 56.934,-34.805 52.86,0.703 67.84,37.422 56.9,56.856 -11.3,20.078 -35.48,19.257 -58.67,19.179 -43.418,-0.156 -35.195,26.739 -17.52,25.742 4.078,-0.234 2.129,-1.386 16.21,-1.386 25.12,0 49.2,17.07 48.49,45.195 -0.06,2.383 0.53,10.586 -5.51,22.109 11.75,-0.05 7.08,0.04 24.9,0.02 l -0.07,-78.77 c 0,-35.585 16.94,-41.621 29.63,-41.621 18.04,0 31.13,11.868 33.47,17.418 10.61,-11.351 25.39,-17.418 42.54,-17.418 32.9,0 57.78,30.332 57.78,70.02 0,60.019 -37.72,71.953 -58.05,71.953"
         style="fill:#ffffff;fill-opacity:1;fill-rule:nonzero;stroke:none"
         id="path24" /><path
         d="m 1353.85,300.527 v 52.5 c 0,24.2 -7.76,59.532 -43.59,59.532 -25.95,0 -39.32,-24.61 -38.79,-20.801 v 18.262 c 0,3.183 -1.6,5.097 -3.21,5.097 -6.15,0 -10.72,-10.449 -31.65,-16.719 -1.34,-0.312 -5.18,-0.351 -5.31,-2.773 0,-6.68 21.01,8.691 20.65,-17.441 v -78.926 c 0,-20.703 -13.92,-15.703 -17.08,-21.113 -1.61,-2.754 2.63,-3.399 6.11,-3.399 3.21,0 8.56,1.27 22.73,1.27 15.52,0 20.87,-1.27 25.41,-1.27 4.02,0 8.63,1.758 5.89,4.453 -4.3,4.219 -23.54,-0.644 -23.54,21.328 v 73.203 c -0.27,5.098 9.1,24.825 31.57,24.825 21.66,0 31.28,-23.867 31.28,-39.785 v -59.512 c -0.26,-23.36 -8.33,-15.977 -11.49,-20.703 -1.78,-2.637 1.33,-3.809 4.8,-3.809 3.49,0 9.11,1.27 19.26,1.27 13.11,0 18.85,-1.211 22.32,-1.211 2.68,0 7.54,2.05 4.55,4.472 -6.75,5.43 -20.08,-2.851 -19.91,21.25"
         style="fill:#ffffff;fill-opacity:1;fill-rule:nonzero;stroke:none"
         id="path26" /><path
         d="m 799.445,424.746 c 3.399,0 10.969,12.422 10.969,16.152 0,3.731 -7.57,16.465 -10.969,16.465 -3.129,0 -10.961,-13.047 -10.961,-16.465 0,-3.418 7.832,-16.152 10.961,-16.152"
         style="fill:#ffffff;fill-opacity:1;fill-rule:nonzero;stroke:none"
         id="path28" /><path
         d="m 533.66,308.32 c 0,-17.011 -17.265,-25.996 -26.89,-25.996 -14.172,0 -24.11,9.219 -24.11,27.5 0,28.242 33.883,33.379 51,37.871 z m 87.074,44.649 c -5.254,2.519 -13.117,7.011 -17,9.14 -16.777,9.18 -23.398,15.196 -23.871,23.789 -0.777,14.883 11.856,22.598 22.805,21.524 26.203,0.449 29.715,-28.906 32.395,-28.906 4.003,0 2.937,3.847 2.937,12.5 0,2.246 0.27,13.144 -1.348,15.703 -3.207,4.824 -21.742,7.636 -26.277,7.636 -1.145,0 -5.434,0.137 -6.172,0.157 -1.269,0.039 -2.926,-0.157 -2.926,-0.157 -18.656,0.293 -36.109,-11.523 -35.554,-36.503 0.511,-22.774 27.277,-35.762 41.726,-44.414 10.688,-6.094 23.278,-11.895 23.117,-26.485 -0.207,-16.64 -13.101,-27.676 -26.98,-26.758 -32.508,0.547 -28.055,41.328 -33.918,41.328 -4.004,0 -3.191,-10.253 -3.207,-15.703 -0.02,-5.277 -0.113,-10.125 -0.117,-14.195 -0.66,-3.746 -2.149,-7.18 -5.621,-7.387 -12.805,-0.761 -9.719,19.59 -9.719,30.489 v 66.425 c -0.621,20.332 -15.926,33.594 -39.184,33.594 -31.933,0 -54.765,-39.336 -43.945,-51.562 2.586,-2.93 12.996,8.32 13.621,8.925 0.633,0.586 0.77,1.329 0.77,1.329 -0.067,13.398 10.011,30.468 24.461,31.894 16.503,1.641 24.75,-10.703 24.75,-27.402 v -21.621 c -62.582,-12.5 -71.645,-33.321 -71.645,-50.313 0,-22.773 16.016,-32.969 33.398,-32.969 14.981,0 29.688,7.051 40.922,18.594 3.477,-10.586 10.442,-16.973 20.868,-16.66 3.617,0.098 4.16,-0.898 15.144,3.848 3.805,0.988 3.598,0.937 7.957,0.129 5.766,-2.02 13.633,-5.891 27.473,-5.891 20.969,-0.313 39.765,19.101 39.765,43.125 0,14.805 -4.312,24.199 -24.625,36.797"
         style="fill:#ffffff;fill-opacity:1;fill-rule:nonzero;stroke:none"
         id="path30" /><path
         d="m 2805.43,306.328 c -3.16,0 -11.09,-13.32 -11.09,-16.816 0,-3.477 7.93,-16.485 11.09,-16.485 3.44,0 11.11,12.676 11.11,16.485 0,3.808 -7.67,16.816 -11.11,16.816"
         style="fill:#ffffff;fill-opacity:1;fill-rule:nonzero;stroke:none"
         id="path32" /><path
         d="M 3153.55,294.805 V 406.66 c 0,6.328 -3.54,7.988 -4.53,7.988 -4.05,0 -6.31,-0.996 -9.09,-1.66 -2.77,-0.996 -6.01,-2.441 -13.32,-2.441 -1.27,0 -8.24,1.172 -7.81,-2.559 0.43,-3.75 16.23,-1.601 16.35,-12.675 v -80.918 c -1.23,-14.122 -13.11,-29.707 -27.46,-29.707 -3.28,0 -24.71,2.324 -24.46,37.656 v 84.316 c 0,6.328 -3.53,7.988 -4.53,7.988 -4.04,0 -6.31,-0.996 -9.08,-1.66 -2.77,-0.996 -6.31,-2.285 -13.61,-2.011 -3.91,0.156 -8.23,0.742 -7.54,-2.989 0.62,-3.32 16.37,0 16.37,-12.675 v -77.637 c 0,-28.34 16.62,-44.649 36.79,-44.649 13.36,0 25.71,2.911 33.52,18.575 h 0.51 v -13.594 c 0,-1.328 0.25,-4.981 2.26,-4.981 3.77,0 5.8,3.145 8.58,4.141 3.02,0.684 3.78,3.437 13.2,4.277 4,0.352 8.5,2.481 8.5,5.157 -1.45,5.664 -14.65,-0.45 -14.65,8.203"
         style="fill:#ffffff;fill-opacity:1;fill-rule:nonzero;stroke:none"
         id="path34" /><path
         d="m 2998.31,282.285 c -31.29,0 -43.59,38.809 -43.59,70.449 0,27.422 10.7,52.676 36.91,52.676 31.82,0 43.32,-33.965 43.32,-67.207 0,-40.019 -14.18,-55.918 -36.64,-55.918 z M 2995.64,415 c -33.69,0 -59.65,-33.887 -59.65,-73.574 0,-17.883 4.29,-32.547 11.7,-43.699 -8.23,-5.879 -23.04,-11.379 -51.23,-11.379 -22.03,0 -19.94,7.597 -19.94,26.269 v 149.278 c 0,27.539 20.58,19.511 21.01,24.531 0.29,3.476 -2.87,2.695 -6.29,2.695 -3.94,0 -11.01,-1.543 -25.96,-1.543 -12.87,0 -24.17,1.211 -29.68,1.211 -3.42,0 -6.51,-0.957 -5.35,-3.574 2.55,-5.879 22.05,-0.547 22.05,-16.992 V 312.305 c 0,-14.883 2.24,-24.395 -4.59,-28.203 -8.38,-5.059 -18.19,-5.313 -17.37,-8.594 0.53,-2.051 4.63,-2.149 7,-2.149 10.48,0 25.02,1.289 35.5,1.602 19.96,0.625 39.89,-1.27 59.85,-1.27 11.56,0 14.45,2.344 22.85,13.731 0.14,0.187 0.24,0.332 0.38,0.512 10.38,-9.711 24.17,-14.907 39.99,-14.907 32.89,0 57.77,30.332 57.77,70.02 0,60.019 -37.71,71.953 -58.04,71.953"
         style="fill:#ffffff;fill-opacity:1;fill-rule:nonzero;stroke:none"
         id="path36" /><path
         d="m 2667.46,390.625 c -7.68,3.848 -19.12,10.742 -24.75,13.984 -24.47,14.063 -34.12,23.262 -34.8,36.407 -1.15,22.793 21.09,36.289 37.03,34.629 20.22,0 36.92,-12.266 43.81,-38.536 0.7,-2.754 3.24,-9.179 5.78,-9.179 2.29,0 2.74,2.148 2.5,4.59 l -3.44,41.543 c -0.23,3.359 -1.36,4.277 -2.75,4.277 -2.29,0 -3.69,-3.36 -5.76,-3.36 -3.22,0 -11.39,11.543 -39.2,11.29 -1.86,0.058 -4.4,-0.235 -4.4,-0.235 -27.16,0.469 -52.65,-17.578 -51.83,-55.82 0.72,-34.824 39.76,-54.727 60.8,-67.969 15.58,-9.316 31.89,-24.219 31.39,-40.762 -0.81,-25.468 -16.78,-42.148 -37,-40.722 -47.38,0.84 -40.88,63.261 -49.43,63.261 -5.84,0 -4.65,-15.703 -4.69,-24.023 -0.04,-19.785 -0.82,-35.996 1.45,-38.867 0.72,-0.918 3.01,-0.488 7.61,-0.488 9.34,0 20.73,-10.84 47.99,-10.84 30.53,-0.489 55.57,27.754 55.57,64.531 0,22.637 -6.31,37.031 -35.88,56.289"
         style="fill:#ffffff;fill-opacity:1;fill-rule:nonzero;stroke:none"
         id="path38" /><path
         d="m 3201.26,424.746 c 3.4,0 10.96,12.422 10.96,16.152 0,3.731 -7.56,16.465 -10.96,16.465 -3.14,0 -10.98,-13.047 -10.98,-16.465 0,-3.418 7.84,-16.152 10.98,-16.152"
         style="fill:#ffffff;fill-opacity:1;fill-rule:nonzero;stroke:none"
         id="path40" /><path
         d="m 3228.51,281.855 c -5.35,0.313 -16.8,2.403 -16.8,13.887 V 410.02 c 0,3.183 -1.62,5.078 -3.22,5.078 -6.15,0 -10.1,-11.192 -27.23,-16.914 -1.33,-0.313 -3.79,-0.586 -3.79,-2.5 0,-6.68 15.35,6.289 14.71,-17.5 v -75.118 c 0.59,-19.218 -9.9,-21.054 -15.7,-21.054 -8.68,0.117 -6.51,-0.977 -6.51,-3.672 0.26,-3.184 5.49,-3.418 14.08,-3.457 2.93,0 10.26,1.113 18.83,1.113 10.96,0 19.26,-1.25 24.87,-1.25 3.47,0 7.81,8.301 0.76,7.109"
         style="fill:#ffffff;fill-opacity:1;fill-rule:nonzero;stroke:none"
         id="path42" /><path
         d="m 3290.19,353.008 c -5.26,2.519 -13.13,7.031 -17.01,9.14 -16.78,9.2 -23.4,15.215 -23.87,23.809 -0.78,14.883 11.85,22.578 22.81,21.504 26.19,0.469 29.71,-28.887 32.38,-28.887 4.01,0 2.95,3.848 2.95,12.5 0,2.246 0.26,13.145 -1.34,15.703 -3.23,4.805 -21.76,7.637 -26.29,7.637 -1.14,0 -5.43,0.117 -6.18,0.137 -1.27,0.039 -2.93,-0.137 -2.93,-0.137 -18.65,0.293 -36.09,-11.523 -35.54,-36.523 0.51,-22.754 27.28,-35.743 41.72,-44.414 10.7,-6.075 23.28,-11.875 23.12,-26.465 -0.21,-16.641 -13.1,-27.676 -26.97,-26.758 -32.52,0.547 -28.07,41.328 -33.93,41.328 -4,0 -3.18,-10.254 -3.2,-15.703 -0.06,-12.891 -0.59,-23.496 0.98,-25.391 0.48,-0.586 2.05,-0.293 5.21,-0.293 6.41,0 14.24,-7.09 32.93,-7.09 20.98,-0.312 39.77,19.102 39.77,43.125 0,14.786 -4.3,24.2 -24.61,36.778"
         style="fill:#ffffff;fill-opacity:1;fill-rule:nonzero;stroke:none"
         id="path44" /><path
         d="m 2786.99,294.414 c -2.69,-1.289 -8.83,-7.949 -23.46,-7.949 -11.03,0 -17.42,6.562 -17.96,20.723 v 91.074 c 0,0 33.04,0.078 34.88,0.078 2.28,0 6.72,14.922 6.87,15.683 0.39,1.875 1.02,3.399 1.23,4.727 0.43,2.852 -1.77,3.105 -3.77,0.098 -1.62,-1.543 -3.32,-5.664 -10.19,-5.664 h -28.98 c 0,24.863 0.29,31.367 -3.58,31.367 -3.71,0 -3.14,-0.996 -6.5,-12.09 -5.61,-18.516 -25.98,-26.641 -32.48,-30.664 -1.59,-0.781 -1.51,-1.074 -1.57,-2.012 -0.13,-2.363 7.74,-1.387 23.93,-1.816 l -0.06,-83.321 c 0,-35.585 16.93,-41.621 29.63,-41.621 19.32,0 33.13,13.75 33.93,18.594 0,2.774 -0.36,3.027 -1.92,2.793"
         style="fill:#ffffff;fill-opacity:1;fill-rule:nonzero;stroke:none"
         id="path46" /><path
         d="m 1894.76,407.031 c 14.73,0 29.73,-16.074 29.73,-34.062 0,-4.824 -1.61,-6.426 -5.36,-6.426 h -52.77 c 0,17.676 11.78,40.488 28.4,40.488 z m 52.5,-101.23 c -5.88,0 -14.73,-16.719 -37.77,-16.719 -16.35,0 -43.13,15.762 -43.13,68.789 h 71.27 c 6.15,0 9.1,-0.332 9.1,5.449 0,12.852 -14.47,51.094 -47.42,51.094 -33.5,0 -52.52,-34.375 -52.52,-75.508 0,-21.211 13.95,-65.879 54.12,-65.879 24.12,0 47.42,23.125 47.42,30.528 0,0.957 0,2.246 -1.07,2.246"
         style="fill:#ffffff;fill-opacity:1;fill-rule:nonzero;stroke:none"
         id="path48" /><path
         d="m 1567.46,482.813 c 1.05,1.718 -2.57,2.48 -3.76,2.48 -4.25,0 -14.09,-1.074 -18.58,-1.074 -9.23,0 -16.9,0.879 -26.13,0.879 -0.71,0 -4.72,-0.508 -4.74,-1.875 -0.06,-6.543 21.99,1.093 21.99,-26.797 V 347.207 c 0,-32.285 -10.16,-66.191 -54.62,-66.191 -31.91,0 -49.2,19.961 -49.2,63.73 v 118.789 c 0,19.688 15.42,15.449 15.75,19.844 0.31,4.219 -13.66,1.719 -14.84,1.719 -7.33,0 -12.49,-0.762 -20.06,-0.762 -6.38,0 -14.12,0.957 -20.27,0.957 -1.18,0 -5.54,0.234 -6.26,-1.523 -2.41,-5.84 19.7,-2.735 19.7,-18.868 V 352.129 c 0,-42.129 11.83,-83.359 74,-82.324 73.74,1.23 72.36,67.539 72.36,80.937 v 105.41 c 0,25.157 12.32,22.774 14.66,26.661"
         style="fill:#ffffff;fill-opacity:1;fill-rule:nonzero;stroke:none"
         id="path50" /><path
         d="m 1858.65,407.93 c 1.79,2.09 2.34,5.488 -5.94,4.765 -4.55,0 -7.99,-0.8 -12.56,-0.8 -5.88,0 -6.99,0.195 -12.62,0.41 -7.01,0.234 -8.92,-0.528 -8.51,-2.637 1.21,-6.25 15.97,-0.137 13.98,-18.574 -1.7,-15.489 -6.7,-28.809 -11.8,-42.031 l -17.94,-47.676 -26.25,79.453 c -3.23,9.922 -4.56,15.234 -4.56,16.211 0,9.941 12.02,7.656 14.67,11.836 1.7,2.656 -1.81,4.062 -5.56,4.062 -3.21,0 -6.9,-1.113 -16.8,-1.347 -8.22,-0.215 -14.04,-0.157 -17.64,0.488 -9.24,1.68 -8.49,-3.418 -5.27,-5.039 3.16,-1.602 4.71,-0.117 9.43,-13.965 l 40.45,-114.219 c 0.82,-2.304 1.88,-7.929 5.37,-7.929 4.03,0 4.03,3.964 9.1,17.539 0,0 38.68,108.164 41.33,112.089 5.24,7.696 9.2,5.157 11.12,7.364"
         style="fill:#ffffff;fill-opacity:1;fill-rule:nonzero;stroke:none"
         id="path52" /><path
         d="m 2007.96,413.125 c -10.95,0 -18.61,-13.223 -24.1,-22.344 h -0.51 v 19.824 c 0,3.145 -1.56,5.04 -3.12,5.04 -4.2,0 -7.42,-8.438 -29.65,-13.692 -1.31,-0.312 -5.02,-1.035 -5.02,-2.93 0,-6.621 18.79,1.993 18.77,-19.882 V 295.82 c 0,-12.89 -13.3,-11.64 -13.3,-18.261 0,-1.875 0.78,-2.813 2.87,-2.813 1.82,0 6.52,1.25 23.96,1.25 14.61,0 20.86,-1.25 24.52,-1.25 2.85,0 4.16,0.625 4.16,3.457 0,10.078 -23.19,-5.039 -23.19,24.219 v 71.055 c 0,4.082 6.25,18.554 16.94,18.554 9.37,0 10.54,-7.226 15.49,-7.226 3.12,0 9.37,9.433 9.37,14.16 0,5.957 -11.72,14.16 -17.19,14.16"
         style="fill:#ffffff;fill-opacity:1;fill-rule:nonzero;stroke:none"
         id="path54" /><path
         d="m 2344.14,412.09 c -2.79,0 -9.94,-0.43 -16.37,-0.43 -7.83,0 -11.68,0.938 -15.02,0.938 -5.04,0 -9.88,-0.039 -9.02,-3.321 0.98,-3.711 17.89,-2.382 17.89,-20.8 0,-2.364 0,-5.45 -3.36,-17.696 l -21.52,-68.496 -29.9,84.16 c 0,0 -1.41,2.715 -1.41,8.184 0,13.613 15.92,12.129 16.54,14.551 0.51,1.992 -2.17,4.062 -6.36,4.062 -4.48,0 -11.06,-0.039 -20.96,-0.039 -1.57,0 -3,-0.012 -4.42,-0.027 0.01,0.019 0.02,0.051 0.02,0.066 h -12.07 c -0.17,0 -0.27,-0.078 -0.47,-0.078 h -28.96 c 0,24.883 0.27,31.387 -3.59,31.387 -3.72,0 -3.15,-1.016 -6.51,-12.09 -5.58,-18.516 -25.97,-26.641 -32.48,-30.664 -1.58,-0.781 -1.5,-1.074 -1.56,-2.031 -0.14,-2.344 7.75,-1.387 23.94,-1.797 l -0.07,-83.321 c 0,-35.585 16.93,-41.621 29.63,-41.621 19.33,0 33.14,13.731 33.94,18.594 0,2.754 -0.35,3.027 -1.91,2.793 -2.7,-1.309 -8.83,-7.949 -23.48,-7.949 -11.04,0 -17.42,6.562 -17.97,20.723 v 91.054 c 0,0 25.8,0.074 33.07,0.094 0.4,-0.621 0.78,-1.258 1.03,-2.008 l 30.9,-87.265 c 2.52,-7.149 4,-9.473 7.03,-22.11 1.99,-8.242 1.25,-15.586 1.25,-15.586 -2.99,-13.125 -11.05,-20.644 -23.34,-44.844 -1.19,-2.343 17.74,0.235 18.67,0.528 1.53,0.469 1.35,0.898 3.19,4.336 l 13.63,40.629 38.13,117.144 c 5.58,20.449 14.43,16.719 15.78,19.512 0.8,1.719 -0.53,3.418 -3.89,3.418"
         style="fill:#ffffff;fill-opacity:1;fill-rule:nonzero;stroke:none"
         id="path56" /><path
         d="m 2294.8,274.043 -0.68,-2.027 -0.14,-0.434 z"
         style="fill:#ffffff;fill-opacity:1;fill-rule:nonzero;stroke:none"
         id="path58" /><path
         d="m 2142.47,424.746 c 3.4,0 10.96,12.422 10.96,16.152 0,3.731 -7.56,16.465 -10.96,16.465 -3.14,0 -10.97,-13.047 -10.97,-16.465 0,-3.418 7.83,-16.152 10.97,-16.152"
         style="fill:#ffffff;fill-opacity:1;fill-rule:nonzero;stroke:none"
         id="path60" /><path
         d="m 2169.72,281.855 c -5.35,0.313 -16.8,2.403 -16.8,13.887 V 410.02 c 0,3.183 -1.62,5.078 -3.22,5.078 -6.15,0 -10.1,-11.192 -27.23,-16.914 -1.32,-0.313 -3.78,-0.586 -3.78,-2.5 0,-6.68 15.35,6.289 14.7,-17.5 v -75.118 c 0.59,-19.218 -9.9,-21.054 -15.7,-21.054 -8.67,0.117 -6.5,-0.977 -6.5,-3.672 0.25,-3.184 5.48,-3.418 14.08,-3.457 2.93,0 10.25,1.113 18.82,1.113 10.96,0 19.26,-1.25 24.87,-1.25 3.48,0 7.81,8.301 0.76,7.109"
         style="fill:#ffffff;fill-opacity:1;fill-rule:nonzero;stroke:none"
         id="path62" /><path
         d="m 1719.58,424.746 c 3.4,0 10.98,12.422 10.98,16.152 0,3.731 -7.58,16.465 -10.98,16.465 -3.13,0 -10.96,-13.047 -10.96,-16.465 0,-3.418 7.83,-16.152 10.96,-16.152"
         style="fill:#ffffff;fill-opacity:1;fill-rule:nonzero;stroke:none"
         id="path64" /><path
         d="m 1746.85,281.855 c -5.37,0.313 -16.82,2.403 -16.82,13.887 V 410.02 c 0,3.183 -1.6,5.078 -3.21,5.078 -6.15,0 -10.11,-11.192 -27.22,-16.914 -1.35,-0.313 -3.81,-0.586 -3.81,-2.5 0,-6.68 15.35,6.289 14.71,-17.5 v -75.118 c 0.58,-19.218 -9.91,-21.054 -15.69,-21.054 -0.72,0.008 -1.26,-0.004 -1.84,-0.012 -5.61,1 -10.89,3.301 -10.77,18.527 v 52.5 c 0,24.2 -7.78,59.532 -43.6,59.532 -25.95,0 -39.32,-24.61 -38.78,-20.801 v 18.262 c 0,3.183 -1.61,5.097 -3.21,5.097 -6.16,0 -10.74,-10.449 -31.66,-16.719 -1.34,-0.312 -5.18,-0.351 -5.31,-2.773 0,-6.68 21.01,8.691 20.65,-17.441 v -78.926 c 0,-20.703 -13.92,-15.703 -17.08,-21.113 -1.62,-2.754 2.63,-3.399 6.11,-3.399 3.21,0 8.56,1.27 22.73,1.27 15.52,0 20.87,-1.27 25.41,-1.27 4.02,0 8.63,1.758 5.89,4.453 -4.3,4.219 -23.53,-0.644 -23.53,21.328 v 73.203 c -0.28,5.098 9.08,24.825 31.56,24.825 21.66,0 31.28,-23.867 31.28,-39.785 v -59.512 c -0.27,-23.36 -8.34,-15.977 -11.5,-20.703 -1.78,-2.637 1.33,-3.809 4.8,-3.809 3.5,0 9.11,1.27 19.26,1.27 13.11,0 18.85,-1.211 22.33,-1.211 0.4,0 0.85,0.058 1.31,0.144 1.14,-0.027 2.21,-0.062 3.51,-0.066 2.95,0 10.28,1.113 18.83,1.113 10.98,0 19.26,-1.25 24.89,-1.25 3.47,0 7.81,8.301 0.76,7.109"
         style="fill:#ffffff;fill-opacity:1;fill-rule:nonzero;stroke:none"
         id="path66" /><path
         d="m 2084.76,353.086 c -5.25,2.519 -13.13,7.031 -17.01,9.141 -16.78,9.199 -23.4,15.214 -23.87,23.789 -0.78,14.902 11.86,22.597 22.81,21.523 26.19,0.469 29.71,-28.887 32.39,-28.887 4,0 2.95,3.848 2.95,12.5 0,2.246 0.27,13.145 -1.35,15.703 -3.21,4.805 -21.74,7.618 -26.29,7.618 -1.13,0 -5.43,0.136 -6.17,0.156 -1.27,0.039 -2.91,-0.156 -2.91,-0.156 -18.68,0.312 -36.12,-11.504 -35.57,-36.504 0.51,-22.754 27.29,-35.742 41.74,-44.414 10.68,-6.075 23.26,-11.875 23.1,-26.465 -0.19,-16.66 -13.1,-27.695 -26.97,-26.777 -32.52,0.546 -28.07,41.347 -33.92,41.347 -4.01,0 -3.19,-10.254 -3.21,-15.703 -0.04,-12.91 -0.56,-23.516 0.98,-25.41 0.49,-0.586 2.07,-0.293 5.21,-0.293 6.41,0 14.24,-7.09 32.95,-7.09 20.96,-0.312 39.77,19.102 39.77,43.145 0,14.785 -4.32,24.199 -24.63,36.777"
         style="fill:#ffffff;fill-opacity:1;fill-rule:nonzero;stroke:none"
         id="path68" /><path
         d="m 206.738,327.211 v -0.34 c -0.035,-2.601 -0.066,-4.437 -0.066,-4.469 v -0.136 l -0.008,-0.137 c -0.371,-7.649 -2.648,-13.738 -7.191,-18.938 -2.993,-3.218 -7.168,-6.582 -12.989,-9.832 -1.601,-0.879 -3.328,-1.757 -5.195,-2.656 -1.41,-0.66 -2.898,-1.312 -4.469,-1.953 v 0 l -0.007,-0.004 c -1.235,-0.508 -5.204,-2.273 -6.532,-2.766 L 108,262.41 v 0 0 0 0 l -62.2812,23.57 c -1.3282,0.493 -5.2969,2.258 -6.5313,2.766 l -0.0078,0.004 v 0 c -1.5703,0.641 -3.0586,1.293 -4.4688,1.953 -1.8671,0.899 -3.5937,1.777 -5.1953,2.656 -5.8203,3.25 -9.9961,6.614 -12.9843,9.832 -4.5469,5.2 -6.82427,11.289 -7.19536,18.938 l -0.00781,0.137 v 0.136 c 0,0.032 -0.03125,1.868 -0.06641,4.469 v 0.34 164.391 C 66.3945,479.77 107.152,480.148 107.992,480.156 v 0.004 h 0.008 0.008 v -0.004 c 0.84,-0.008 41.597,-0.386 98.73,11.446 z m -98.73,163.652 v 0 h -0.016 v 0 C 107.07,490.855 62.4922,490.438 0,503.379 V 323.57 323.199 c 0.0390625,-2.844 0.0742188,-4.855 0.0742188,-4.886 v -0.149 l 0.0078125,-0.148 C 0.488281,309.648 2.98047,302.984 7.94922,297.301 c 3.27348,-3.524 7.83988,-7.203 14.20708,-10.754 1.75,-0.961 3.6406,-1.926 5.6796,-2.906 1.543,-0.723 3.1719,-1.438 4.8868,-2.137 v 0 l 0.0117,-0.004 c 1.3476,-0.555 5.6914,-2.488 7.1445,-3.023 L 108,252.691 v 0 0 0 0 l 68.121,25.786 c 1.453,0.535 5.797,2.468 7.145,3.023 l 0.011,0.004 v 0 c 1.715,0.699 3.344,1.414 4.887,2.137 2.039,0.98 3.93,1.945 5.684,2.906 6.363,3.551 10.929,7.23 14.203,10.754 4.969,5.683 7.461,12.347 7.867,20.715 l 0.008,0.148 v 0.149 c 0.004,0.031 0.035,2.042 0.074,4.886 v 0.371 179.809 C 153.508,490.438 108.93,490.855 108.008,490.863"
         style="fill:#ffffff;fill-opacity:1;fill-rule:nonzero;stroke:none"
         id="path70" /><path
         d="m 125.578,453.25 -10.699,-7.937 3.996,-12.735 -10.875,7.738 -10.8633,-7.738 3.9963,12.735 -10.7111,7.937 13.3361,0.117 4.242,12.656 4.254,-12.656 z m 36.61,5.039 4.242,12.66 4.254,-12.66 13.324,-0.117 -10.699,-7.934 3.996,-12.738 -10.875,7.742 -10.864,-7.742 3.997,12.738 -10.711,7.934 z M 60.4414,437.5 l -10.875,7.742 -10.8633,-7.742 3.9961,12.738 -10.707,7.934 13.332,0.117 4.2422,12.66 4.2539,-12.66 13.3242,-0.117 -10.6992,-7.934 z m 47.5666,32.871 v 0 h -0.016 v 0 c -0.765,-0.008 -38.0311,-0.355 -90.2654,10.461 V 438.711 C 69.9609,427.895 107.227,428.242 107.992,428.25 v 0 h 0.008 0.008 v 0 c 0.765,-0.008 38.027,-0.355 90.265,10.461 v 42.121 c -52.238,-10.816 -89.5,-10.469 -90.265,-10.461"
         style="fill:#ffffff;fill-opacity:1;fill-rule:nonzero;stroke:none"
         id="path72" /><path
         d="m 112.676,314.016 v 0 l -2.403,-6.68 v -11.313 h -4.546 v 11.313 l -2.403,6.68 v 0 0 0 0 12.672 0 l 4.676,4.675 4.676,-4.675 z m 0.988,-21.407 h 8.301 v -4.269 l -5.266,-4.223 -3.035,3.281 z m 0,14.719 5.641,6.207 h 12.574 v -5.984 l -3.621,-3.649 -5.613,3.645 -0.004,0.004 -4.438,-4.805 v -6.723 h -4.539 z m 36.047,16.11 h 8.805 l 3.949,-4.348 v -7.918 h -3.18 v 4.707 l -3.105,3.367 -0.004,-0.004 -3.93,-2.551 -2.535,2.551 z m 15.129,-19.403 v 4.746 h 3.18 v -4.746 l 1.683,-3.082 -3.273,-4.051 -3.274,4.051 z m -1.684,19.738 v 0 8.872 l 3.274,3.273 3.273,-3.273 v -8.872 0 l -1.683,-4.679 v -7.922 h -3.18 v 7.922 l -1.684,4.679 v 0 z m 7.239,-14.992 h 5.812 v -2.984 l -3.687,-2.957 -2.125,2.293 z m 0,10.309 3.949,4.348 h 8.804 v -4.196 l -2.535,-2.551 -3.929,2.551 v 0.004 l -3.11,-3.367 v -4.707 h -3.179 z m -7.93,-13.957 -2.125,-2.293 -3.688,2.957 v 2.984 h 5.813 z M 108,275.641 l -4.676,5.785 2.403,4.402 v 6.781 h 4.546 v -6.781 l 2.403,-4.402 z m -5.664,20.382 h -4.5391 v 6.723 l -4.4375,4.805 -0.0039,-0.004 -5.6133,-3.645 -3.6172,3.649 v 5.984 h 12.5703 l 5.6407,-6.207 z m 0,-8.625 -3.0352,-3.281 -5.2656,4.223 v 4.269 h 8.3008 z m -36.0508,31.844 -2.5352,-2.551 -3.9297,2.551 v 0.004 l -3.1094,-3.367 v -4.707 h -3.1796 v 7.918 l 3.9492,4.348 h 8.8047 z m -6.9414,-13.445 -3.6836,-2.957 -2.1289,2.293 v 3.648 h 5.8125 z m -6.504,17.976 v 0 l -1.6796,-4.679 v -7.922 h -3.1836 v 7.922 l -1.6797,4.679 H 46.293 v 0 0 8.872 h 0.0039 l 3.2695,3.273 3.2734,-3.273 z m -3.2734,-26.871 -3.2734,4.051 1.6836,3.082 v 4.746 h 3.1836 v -4.746 l 1.6796,-3.082 z m -3.9648,14.27 h -3.1797 v 4.707 l -3.1055,3.367 -0.0039,-0.004 -3.9297,-2.551 -2.5312,2.551 v 4.196 h 8.8007 l 3.9493,-4.348 z m 0,-6.039 -2.125,-2.293 -3.6875,2.957 v 2.984 h 5.8125 z m 62.4064,29.594 v 0 h -0.016 v 0 c -0.765,-0.008 -38.0311,-0.356 -90.2654,10.461 v -14.961 c 0.0351,-2.379 0.0625,-4.055 0.0625,-4.086 v -0.125 l 0.0078,-0.125 c 0.3398,-6.993 2.4219,-12.563 6.5742,-17.313 2.7344,-2.941 6.5547,-6.019 11.875,-8.988 1.4648,-0.805 3.043,-1.61 4.75,-2.43 1.2891,-0.601 2.6484,-1.199 4.0859,-1.785 v 0 l 0.0039,-0.004 c 1.1289,-0.461 4.7579,-2.082 5.9766,-2.527 L 108,271.293 v 0 0 0 0 l 56.938,21.551 c 1.218,0.445 4.847,2.066 5.976,2.527 l 0.008,0.004 v 0 c 1.433,0.586 2.793,1.184 4.082,1.785 1.707,0.82 3.285,1.625 4.75,2.43 5.32,2.969 9.141,6.047 11.875,8.988 4.152,4.75 6.234,10.32 6.574,17.313 l 0.008,0.125 v 0.125 c 0,0.031 0.027,1.707 0.062,4.086 v 0.312 14.649 c -52.238,-10.817 -89.5,-10.469 -90.265,-10.461"
         style="fill:#ffffff;fill-opacity:1;fill-rule:nonzero;stroke:none"
         id="path74" /><path
         d="m 112.438,357.578 -4.438,-3.844 -4.437,3.844 -2.516,2.18 H 64.9766 v 53.648 l -7.6289,-5.593 v -55.649 h 42.4804 l 3.7349,-3.234 4.437,-3.844 4.438,3.844 3.734,3.234 h 42.48 v 55.649 l -7.629,5.593 v -53.648 h -36.07 l -2.515,-2.18"
         style="fill:#ffffff;fill-opacity:1;fill-rule:nonzero;stroke:none"
         id="path76" /><path
         d="m 103.563,416.719 -1.344,1.164 H 72.6094 V 367.34 h 29.6716 l 2.067,-1.793 3.652,-3.16 3.652,3.16 2.067,1.793 h 29.672 v 50.543 h -29.61 l -1.343,-1.164 -4.438,-3.844 -4.437,3.844"
         style="fill:#ffffff;fill-opacity:1;fill-rule:nonzero;stroke:none"
         id="path78" /><path
         d="m 166.434,367.93 c 9.75,1.414 20.437,3.242 31.839,5.605 v 13.774 20.468 c -11.402,-2.363 -22.089,-4.191 -31.839,-5.605 V 367.93"
         style="fill:#ffffff;fill-opacity:1;fill-rule:nonzero;stroke:none"
         id="path80" /><path
         d="m 49.5664,402.172 c -9.75,1.414 -20.4375,3.242 -31.8398,5.605 v -20.468 -13.774 c 11.4023,-2.363 22.0898,-4.191 31.8398,-5.605 v 34.242"
         style="fill:#ffffff;fill-opacity:1;fill-rule:nonzero;stroke:none"
         id="path82" /><path
         d="M 406.105,37.3555 C 403.578,27.8125 399.066,12.4492 395.82,5.40234 390.766,4.15234 375.598,0 362.602,0 317.656,0 297.98,35.6914 297.98,68.6914 c 0,43.7886 29.247,72.4216 69.5,72.4216 14.618,0 26.891,-4.558 31.946,-5.593 1.445,-11.622 2.531,-20.137 3.609,-31.34 l -5.234,-1.453 c -4.871,21.992 -15.703,30.918 -35.199,30.918 -30.141,0 -46.211,-29.258 -46.211,-60.8012 0,-38.8125 19.855,-65.37114 47.293,-65.37114 18.414,0 28.16,11.41404 37.187,31.96094 l 5.234,-2.0781"
         style="fill:#ffffff;fill-opacity:1;fill-rule:nonzero;stroke:none"
         id="path84" /><path
         d="m 454.676,79.0703 h -0.36 L 442.402,42.7539 H 466.41 Z M 466.949,3.11328 v 5.60938 l 3.43,0.41015 c 5.414,0.82813 6.5,2.48829 3.969,9.96099 l -5.051,15.5625 h -29.606 c -1.441,-4.1485 -2.886,-8.9219 -4.152,-14.5274 -2.16,-8.3047 -0.359,-9.9648 4.875,-10.78124 l 4.336,-0.625 V 3.11328 h -32.676 v 5.60938 c 8.305,1.03515 11.735,2.48824 17.149,17.63674 l 26.539,74.2926 5.414,1.664 27.976,-79.484 C 493.305,10.7891 496.555,9.34766 504.855,8.72266 V 3.11328 h -37.906"
         style="fill:#ffffff;fill-opacity:1;fill-rule:nonzero;stroke:none"
         id="path86" /><path
         d="M 627.063,93.8008 C 613.703,92.5586 612.805,91.9336 612.98,77.1953 l 1.086,-52.0859 c 0.18,-14.3203 0.903,-15.14846 13.36,-16.38674 V 3.11328 h -40.617 v 5.60938 c 11.914,1.23828 12.82,1.86324 12.82,16.59764 l 0.359,59.7695 h -0.543 L 567.492,4.77734 h -3.789 L 536.086,83.6328 h -0.539 l -1.809,-38.3906 c -0.902,-14.5274 -0.902,-22 -0.543,-27.1836 0.184,-6.6445 2.891,-8.30079 12.457,-9.33594 V 3.11328 h -33.754 v 5.60938 c 8.125,0.82812 11.192,2.89844 12.094,9.12894 0.903,6.4336 1.988,14.5195 2.887,28.0156 l 2.168,29.2617 c 1.082,16.8047 0,17.4297 -12.817,18.6719 v 5.6015 h 27.977 l 26.176,-67.4375 28.523,67.4375 h 28.157 v -5.6015"
         style="fill:#ffffff;fill-opacity:1;fill-rule:nonzero;stroke:none"
         id="path88" /><path
         d="m 664.805,49.3945 c 2.347,-1.0429 5.957,-2.0781 10.468,-2.0781 6.317,0 18.231,3.1133 18.231,23.457 0,15.9727 -9.203,22.4024 -19.859,22.4024 -8.661,0 -8.84,-1.6602 -8.84,-8.711 z m 12.816,50.0078 c 19.492,0 32.129,-8.2968 32.129,-28.4257 0,-18.8868 -12.457,-28.6407 -27.801,-30.9258 -2.347,-0.4102 -4.508,-0.4102 -6.496,-0.4102 l -10.648,3.1133 V 24.6953 c 0,-13.6875 1.082,-14.73436 14.261,-15.97264 V 3.11328 h -41.339 v 5.60938 c 11.554,1.23828 12.636,2.06644 12.636,15.76954 v 52.293 c 0,15.1484 -1.082,15.9804 -11.914,17.0156 v 5.6015 h 39.172"
         style="fill:#ffffff;fill-opacity:1;fill-rule:nonzero;stroke:none"
         id="path90" /><path
         d="m 814.992,93.8008 c -8.668,-0.832 -11.914,-2.4922 -12.457,-9.7461 -0.539,-4.7774 -0.902,-11.6211 -0.902,-25.5274 V 47.1094 c 0,-13.9063 -2.528,-27.1875 -9.926,-35.6953 C 785.75,4.36328 776.723,0.421875 767.156,0.421875 c -8.484,0 -16.426,1.863285 -22.746,7.468755 -7.398,6.64067 -11.551,17.42967 -11.551,34.86327 v 34.2383 c 0,14.5234 -1.082,15.5664 -12.636,16.8086 v 5.6015 h 39.531 V 93.8008 C 748.383,92.5586 747.48,91.5156 747.48,76.9922 V 47.3164 c 0,-24.0742 8.125,-36.7305 23.465,-36.7305 16.246,0 23.828,14.1094 23.828,38.3907 v 9.5507 c 0,14.3165 -0.363,20.543 -0.902,25.5274 -0.723,7.2539 -3.789,9.1211 -14.078,9.7461 v 5.6015 h 35.199 v -5.6015"
         style="fill:#ffffff;fill-opacity:1;fill-rule:nonzero;stroke:none"
         id="path92" /><path
         d="m 872.582,73.0469 c -3.609,12.6679 -8.844,22.414 -19.496,22.414 -8.664,0 -13.535,-7.2695 -13.535,-15.3515 0,-10.793 7.039,-14.7383 15.883,-19.0938 l 3.25,-1.4531 c 12.089,-5.6094 23.105,-12.6602 23.105,-29.4727 0,-17.2187 -13.359,-29.667925 -31.23,-29.667925 -11.551,0 -20.219,4.980465 -23.465,7.265625 -1.086,3.3203 -2.891,15.5547 -4.332,25.9336 l 5.234,1.0352 c 3.246,-11.6211 11.192,-27.5938 24.906,-27.5938 8.848,0 14.805,7.0469 14.805,16.5977 0,11.4062 -7.402,15.9804 -14.621,19.5039 l -3.973,2.0781 c -9.925,4.9844 -22.742,12.2461 -22.742,28.0117 0,16.8125 11.192,28.8481 29.965,28.8481 8.121,0 14.801,-2.6997 18.051,-3.9497 1.265,-6.2187 1.984,-13.8945 3.25,-24.2734 l -5.055,-0.832"
         style="fill:#ffffff;fill-opacity:1;fill-rule:nonzero;stroke:none"
         id="path94" /><path
         d="M 1038.84,37.3555 C 1036.31,27.8125 1031.8,12.4492 1028.55,5.40234 1023.49,4.15234 1008.33,0 995.328,0 c -44.945,0 -64.617,35.6914 -64.617,68.6914 0,43.7886 29.242,72.4216 69.499,72.4216 14.62,0 26.89,-4.558 31.95,-5.593 1.44,-11.622 2.53,-20.137 3.6,-31.34 l -5.23,-1.453 c -4.87,21.992 -15.7,30.918 -35.202,30.918 -30.14,0 -46.211,-29.258 -46.211,-60.8012 0,-38.8125 19.86,-65.37114 47.297,-65.37114 18.416,0 28.156,11.41404 37.186,31.96094 l 5.24,-2.0781"
         style="fill:#ffffff;fill-opacity:1;fill-rule:nonzero;stroke:none"
         id="path96" /><path
         d="m 1087.4,79.0703 h -0.36 l -11.91,-36.3164 h 24 z m 12.28,-75.95702 v 5.60938 l 3.42,0.41015 c 5.42,0.82813 6.5,2.48829 3.97,9.96099 l -5.05,15.5625 h -29.6 c -1.45,-4.1485 -2.89,-8.9219 -4.16,-14.5274 -2.16,-8.3047 -0.36,-9.9648 4.88,-10.78124 l 4.33,-0.625 V 3.11328 h -32.67 v 5.60938 c 8.3,1.03515 11.73,2.48824 17.15,17.63674 l 26.53,74.2926 5.42,1.664 27.98,-79.484 c 4.15,-12.0429 7.4,-13.48434 15.7,-14.10934 V 3.11328 h -37.9"
         style="fill:#ffffff;fill-opacity:1;fill-rule:nonzero;stroke:none"
         id="path98" /><path
         d="m 1180.55,51.0547 c 5.05,0 9.38,0.832 13.17,3.3203 4.7,3.3203 7.04,9.9609 7.04,17.4336 0,15.1445 -8.84,21.1602 -19.31,21.1602 -7.58,0 -8.31,-1.8633 -8.31,-8.0977 V 51.0547 Z m 50.18,-49.19142 h -4.15 c -14.45,0 -20.22,4.57422 -25.64,13.49612 -3.97,6.6445 -9.02,16.3867 -11.55,21.582 -3.25,6.2227 -5.24,7.6758 -12.28,7.6758 h -3.97 V 25.3203 c 0,-14.3125 1.09,-15.56249 12.82,-16.59764 V 3.11328 h -40.07 v 5.60938 c 11.91,1.03515 12.99,2.28514 12.99,16.59764 v 51.6719 c 0,15.1484 -1.08,15.7734 -12.45,16.8086 v 5.6015 h 39.71 c 9.21,0 15.88,-1.25 21.3,-4.9765 5.23,-3.7344 9.2,-10.3711 9.2,-19.9219 0,-13.4883 -8.48,-21.1758 -17.14,-24.9023 2.16,-4.1524 7.76,-14.9453 11.91,-21.5821 4.52,-7.4726 6.86,-10.7929 9.93,-14.5351 3.07,-3.72659 6.68,-5.59377 9.93,-6.84377 l -0.54,-4.77735"
         style="fill:#ffffff;fill-opacity:1;fill-rule:nonzero;stroke:none"
         id="path100" /><path
         d="m 1263.05,26.3594 c 0,-13.2852 2.89,-16.39846 13.18,-16.39846 21.48,0 32.67,16.39846 32.67,41.71096 0,30.3008 -14.44,41.0937 -34.3,41.0937 -5.23,0 -8.84,-1.0351 -9.92,-2.6992 -1.09,-1.25 -1.63,-3.9453 -1.63,-9.7539 z m 13.72,73.0429 c 15.52,0 28.88,-3.5234 37.91,-13.0742 6.5,-6.8437 11.19,-18.0547 11.19,-31.75 0,-35.4843 -24.91,-51.46482 -54.51,-51.46482 h -36.11 v 5.60938 c 12.1,1.03515 13.18,2.28514 13.18,16.80464 v 51.043 c 0,15.3633 -1.08,16.1953 -12.09,17.2305 v 5.6015 h 40.43"
         style="fill:#ffffff;fill-opacity:1;fill-rule:nonzero;stroke:none"
         id="path102" /><path
         d="m 1435.98,106.672 c -3.06,13.062 -7.94,27.391 -23.64,27.391 -13.9,0 -20.04,-11.415 -20.04,-22.625 0,-15.1489 8.67,-22.4067 22.93,-30.7036 14.26,-8.5156 31.22,-18.0586 31.22,-41.5039 C 1446.45,17.4336 1430.39,0 1406.38,0 c -7.4,0 -13.35,1.66016 -17.69,3.11328 -4.51,1.86719 -7.22,3.32422 -9.02,4.35938 -1.27,4.35154 -3.61,22.20704 -4.88,32.16794 l 5.42,1.4532 c 2.7,-12.6641 10.83,-33.62114 29.6,-33.62114 13.72,0 21.66,9.75394 21.66,24.89844 0,15.3633 -9.92,22.6172 -23.46,30.918 -11.56,7.2695 -29.79,17.4453 -29.79,40.8909 0,19.922 13.9,36.933 37.19,36.933 8.3,0 15.88,-2.273 22.74,-4.773 0.73,-7.461 1.62,-15.559 3.07,-28.637 l -5.24,-1.031"
         style="fill:#ffffff;fill-opacity:1;fill-rule:nonzero;stroke:none"
         id="path104" /><path
         d="m 1529.13,28.6445 c -0.9,-6.2343 -3.61,-21.17184 -4.69,-25.53122 h -69.68 v 5.60938 c 12.82,1.23828 13.72,2.48824 13.72,17.22264 v 50.625 c 0,15.1602 -0.9,16.1953 -12.46,17.0235 v 5.8085 H 1521 c 0.18,-4.1484 0.73,-14.3125 1.45,-23.8671 l -4.87,-0.4063 c -1.63,6.4258 -3.07,9.9609 -4.88,12.4492 -2.35,3.5274 -5.23,4.9805 -14.98,4.9805 h -9.57 c -4.69,0 -5.05,-0.2031 -5.05,-5.8125 V 56.8633 h 13.18 c 10.83,0 11.73,1.2422 13.35,11.4101 h 5.06 v -31.332 h -5.06 c -1.62,10.5859 -2.52,12.0352 -13.35,12.0352 H 1483.1 V 25.1094 c 0,-7.8828 0.9,-11.625 3.07,-13.2852 2.16,-1.6601 6.49,-2.06639 13.9,-2.06639 9.2,0 13.9,1.24999 17.15,5.18359 2.16,2.9102 4.51,7.2656 6.86,14.7383 l 5.05,-1.0352"
         style="fill:#ffffff;fill-opacity:1;fill-rule:nonzero;stroke:none"
         id="path106" /><path
         d="m 1573.54,51.0547 c 5.06,0 9.39,0.832 13.18,3.3203 4.69,3.3203 7.04,9.9609 7.04,17.4336 0,15.1445 -8.84,21.1602 -19.31,21.1602 -7.59,0 -8.31,-1.8633 -8.31,-8.0977 V 51.0547 Z m 50.19,-49.19142 h -4.15 c -14.44,0 -20.23,4.57422 -25.64,13.49612 -3.97,6.6445 -9.02,16.3867 -11.55,21.582 -3.25,6.2227 -5.23,7.6758 -12.28,7.6758 h -3.97 V 25.3203 c 0,-14.3125 1.08,-15.56249 12.82,-16.59764 V 3.11328 h -40.07 v 5.60938 c 11.91,1.03515 12.99,2.28514 12.99,16.59764 v 51.6719 c 0,15.1484 -1.08,15.7734 -12.45,16.8086 v 5.6015 h 39.71 c 9.21,0 15.89,-1.25 21.3,-4.9765 5.23,-3.7344 9.21,-10.3711 9.21,-19.9219 0,-13.4883 -8.49,-21.1758 -17.15,-24.9023 2.17,-4.1524 7.76,-14.9453 11.91,-21.5821 4.51,-7.4726 6.86,-10.7929 9.93,-14.5351 3.07,-3.72659 6.68,-5.59377 9.93,-6.84377 l -0.54,-4.77735"
         style="fill:#ffffff;fill-opacity:1;fill-rule:nonzero;stroke:none"
         id="path108" /><path
         d="m 1713.27,93.8008 c -9.92,-1.6602 -11.73,-3.3203 -17.32,-16.6055 -5.24,-12.2461 -16.98,-45.2305 -27.62,-76.14842 h -5.6 c -9.39,26.97262 -21.84,61.42582 -28.34,79.47262 -3.97,10.9961 -6.68,12.0391 -14.8,13.2813 v 5.6015 h 38.27 v -5.6015 l -5.06,-1.0352 c -4.87,-1.0351 -5.59,-2.4922 -3.43,-8.9258 3.07,-9.3359 12.64,-36.1054 20.76,-59.3476 6.67,18.0586 16.43,47.3164 19.67,58.3125 2,7.4687 1.27,8.9258 -5.23,10.3711 l -3.97,0.625 v 5.6015 h 32.67 v -5.6015"
         style="fill:#ffffff;fill-opacity:1;fill-rule:nonzero;stroke:none"
         id="path110" /><path
         d="m 1721.4,3.11328 v 5.60938 c 11.56,1.23828 12.64,2.06644 12.64,17.01174 v 51.0508 c 0,15.1484 -1.08,15.9804 -12.64,17.0156 v 5.6015 h 40.08 v -5.6015 c -11.74,-1.2422 -12.82,-1.8672 -12.82,-17.0156 V 25.7344 c 0,-14.9453 1.08,-15.77346 12.82,-17.01174 V 3.11328 h -40.08"
         style="fill:#ffffff;fill-opacity:1;fill-rule:nonzero;stroke:none"
         id="path112" /><path
         d="m 1854.81,30.9297 c -1.44,-7.2695 -4.87,-20.7656 -7.4,-26.15236 -3.6,-1.25 -17.15,-4.355465 -25.99,-4.355465 -32.86,0 -48.37,24.070325 -48.37,49.804725 0,31.1211 22.38,51.8754 51.25,51.8754 11.38,0 20.77,-2.9028 25.46,-4.5629 1.09,-8.0977 1.45,-15.9844 2.52,-25.3203 l -5.23,-1.0352 c -3.6,18.0547 -12.63,24.2773 -25.81,24.2773 -18.23,0 -31.23,-17.8437 -31.23,-42.7461 0,-26.9804 14.44,-45.44917 31.95,-45.44917 13,0 21.12,8.30077 27.8,24.90237 l 5.05,-1.2383"
         style="fill:#ffffff;fill-opacity:1;fill-rule:nonzero;stroke:none"
         id="path114" /><path
         d="m 1938.4,28.6445 c -0.9,-6.2343 -3.62,-21.17184 -4.7,-25.53122 h -69.68 v 5.60938 c 12.82,1.23828 13.72,2.48824 13.72,17.22264 v 50.625 c 0,15.1602 -0.9,16.1953 -12.45,17.0235 v 5.8085 h 64.98 c 0.19,-4.1484 0.72,-14.3125 1.45,-23.8671 l -4.88,-0.4063 c -1.62,6.4258 -3.06,9.9609 -4.87,12.4492 -2.34,3.5274 -5.23,4.9805 -14.98,4.9805 h -9.57 c -4.7,0 -5.06,-0.2031 -5.06,-5.8125 V 56.8633 h 13.19 c 10.83,0 11.72,1.2422 13.35,11.4101 h 5.05 v -31.332 h -5.05 c -1.63,10.5859 -2.52,12.0352 -13.35,12.0352 h -13.19 V 25.1094 c 0,-7.8828 0.91,-11.625 3.08,-13.2852 2.17,-1.6601 6.49,-2.06639 13.89,-2.06639 9.21,0 13.9,1.24999 17.15,5.18359 2.17,2.9102 4.51,7.2656 6.86,14.7383 l 5.06,-1.0352"
         style="fill:#ffffff;fill-opacity:1;fill-rule:nonzero;stroke:none"
         id="path116" /><path
         d="m 1998.15,73.0469 c -3.61,12.6679 -8.85,22.414 -19.5,22.414 -8.66,0 -13.53,-7.2695 -13.53,-15.3515 0,-10.793 7.04,-14.7383 15.88,-19.0938 l 3.25,-1.4531 c 12.1,-5.6094 23.1,-12.6602 23.1,-29.4727 0,-17.2187 -13.36,-29.667925 -31.23,-29.667925 -11.55,0 -20.21,4.980465 -23.47,7.265625 -1.07,3.3203 -2.88,15.5547 -4.32,25.9336 l 5.23,1.0352 c 3.25,-11.6211 11.19,-27.5938 24.91,-27.5938 8.84,0 14.8,7.0469 14.8,16.5977 0,11.4062 -7.39,15.9804 -14.62,19.5039 l -3.96,2.0781 c -9.94,4.9844 -22.75,12.2461 -22.75,28.0117 0,16.8125 11.19,28.8481 29.96,28.8481 8.13,0 14.81,-2.6997 18.05,-3.9497 1.27,-6.2187 1.99,-13.8945 3.25,-24.2734 l -5.05,-0.832"
         style="fill:#ffffff;fill-opacity:1;fill-rule:nonzero;stroke:none"
         id="path118" /></g></g></svg>
